<svg width="413" height="140" viewBox="0 0 413 140" fill="none" xmlns="http://www.w3.org/2000/svg">
<rect x="1.62305" y="54.1831" width="17.0139" height="17.0139" rx="8.50696" fill="#0D3E2B" stroke="white"/>
<rect x="114.878" y="54.1831" width="17.0139" height="17.0139" rx="8.50696" fill="#8D1902" stroke="white"/>
<path d="M36.6896 55.6899V57.8899H31.0896V69.6899H28.7896V55.6899H36.6896ZM49.2006 67.8499C47.8006 69.2499 46.0873 69.9499 44.0606 69.9499C42.0339 69.9499 40.3139 69.2499 38.9006 67.8499C37.5006 66.4366 36.8006 64.7166 36.8006 62.6899C36.8006 60.6633 37.5006 58.9499 38.9006 57.5499C40.3139 56.1366 42.0339 55.4299 44.0606 55.4299C46.0873 55.4299 47.8006 56.1366 49.2006 57.5499C50.6139 58.9499 51.3206 60.6633 51.3206 62.6899C51.3206 64.7166 50.6139 66.4366 49.2006 67.8499ZM40.5206 66.2899C41.4806 67.2366 42.6606 67.7099 44.0606 67.7099C45.4606 67.7099 46.6339 67.2366 47.5806 66.2899C48.5406 65.3299 49.0206 64.1299 49.0206 62.6899C49.0206 61.2499 48.5406 60.0566 47.5806 59.1099C46.6339 58.1499 45.4606 57.6699 44.0606 57.6699C42.6606 57.6699 41.4806 58.1499 40.5206 59.1099C39.5739 60.0566 39.1006 61.2499 39.1006 62.6899C39.1006 64.1299 39.5739 65.3299 40.5206 66.2899ZM61.7178 55.6899V57.8899H57.7778V69.6899H55.4778V57.8899H51.5178V55.6899H61.7178ZM74.3178 67.8499C72.9178 69.2499 71.2044 69.9499 69.1778 69.9499C67.1511 69.9499 65.4311 69.2499 64.0178 67.8499C62.6178 66.4366 61.9178 64.7166 61.9178 62.6899C61.9178 60.6633 62.6178 58.9499 64.0178 57.5499C65.4311 56.1366 67.1511 55.4299 69.1778 55.4299C71.2044 55.4299 72.9178 56.1366 74.3178 57.5499C75.7311 58.9499 76.4378 60.6633 76.4378 62.6899C76.4378 64.7166 75.7311 66.4366 74.3178 67.8499ZM65.6378 66.2899C66.5978 67.2366 67.7778 67.7099 69.1778 67.7099C70.5778 67.7099 71.7511 67.2366 72.6978 66.2899C73.6578 65.3299 74.1378 64.1299 74.1378 62.6899C74.1378 61.2499 73.6578 60.0566 72.6978 59.1099C71.7511 58.1499 70.5778 57.6699 69.1778 57.6699C67.7778 57.6699 66.5978 58.1499 65.6378 59.1099C64.6911 60.0566 64.2178 61.2499 64.2178 62.6899C64.2178 64.1299 64.6911 65.3299 65.6378 66.2899ZM86.7757 62.4299C87.3891 62.7499 87.8691 63.1899 88.2157 63.7499C88.5624 64.3099 88.7357 64.9566 88.7357 65.6899C88.7357 66.8366 88.3291 67.7899 87.5157 68.5499C86.7024 69.3099 85.7091 69.6899 84.5357 69.6899H78.5357V55.6899H84.0957C85.2424 55.6899 86.2091 56.0633 86.9957 56.8099C87.7957 57.5433 88.1957 58.4633 88.1957 59.5699C88.1957 60.7833 87.7224 61.7366 86.7757 62.4299ZM84.0957 57.8499H80.8357V61.5299H84.0957C84.6024 61.5299 85.0291 61.3566 85.3757 61.0099C85.7224 60.6499 85.8957 60.2099 85.8957 59.6899C85.8957 59.1699 85.7224 58.7366 85.3757 58.3899C85.0291 58.0299 84.6024 57.8499 84.0957 57.8499ZM84.5357 67.5299C85.0691 67.5299 85.5157 67.3433 85.8757 66.9699C86.2491 66.5833 86.4357 66.1166 86.4357 65.5699C86.4357 65.0233 86.2491 64.5633 85.8757 64.1899C85.5157 63.8033 85.0691 63.6099 84.5357 63.6099H80.8357V67.5299H84.5357Z" fill="#091A5A"/>
<path d="M151.145 55.6899V57.8899H147.205V69.6899H144.905V57.8899H140.945V55.6899H151.145ZM158.005 55.6899C159.325 55.6899 160.425 56.1299 161.305 57.0099C162.199 57.8899 162.645 58.9833 162.645 60.2899C162.645 61.5833 162.199 62.6766 161.305 63.5699C160.425 64.4499 159.325 64.8899 158.005 64.8899H155.145V69.6899H152.845V55.6899H158.005ZM158.005 62.7299C158.685 62.7299 159.245 62.5033 159.685 62.0499C160.125 61.5833 160.345 60.9966 160.345 60.2899C160.345 59.5833 160.125 59.0033 159.685 58.5499C159.245 58.0833 158.685 57.8499 158.005 57.8499H155.145V62.7299H158.005ZM166.942 67.4899H173.142V69.6899H164.642V55.6899H173.042V57.8899H166.942V61.5299H172.542V63.7099H166.942V67.4899ZM183.488 62.4299C184.101 62.7499 184.581 63.1899 184.928 63.7499C185.274 64.3099 185.448 64.9566 185.448 65.6899C185.448 66.8366 185.041 67.7899 184.228 68.5499C183.414 69.3099 182.421 69.6899 181.248 69.6899H175.248V55.6899H180.808C181.954 55.6899 182.921 56.0633 183.708 56.8099C184.508 57.5433 184.908 58.4633 184.908 59.5699C184.908 60.7833 184.434 61.7366 183.488 62.4299ZM180.808 57.8499H177.548V61.5299H180.808C181.314 61.5299 181.741 61.3566 182.088 61.0099C182.434 60.6499 182.608 60.2099 182.608 59.6899C182.608 59.1699 182.434 58.7366 182.088 58.3899C181.741 58.0299 181.314 57.8499 180.808 57.8499ZM181.248 67.5299C181.781 67.5299 182.228 67.3433 182.588 66.9699C182.961 66.5833 183.148 66.1166 183.148 65.5699C183.148 65.0233 182.961 64.5633 182.588 64.1899C182.228 63.8033 181.781 63.6099 181.248 63.6099H177.548V67.5299H181.248ZM199.155 67.8499C197.755 69.2499 196.041 69.9499 194.015 69.9499C191.988 69.9499 190.268 69.2499 188.855 67.8499C187.455 66.4366 186.755 64.7166 186.755 62.6899C186.755 60.6633 187.455 58.9499 188.855 57.5499C190.268 56.1366 191.988 55.4299 194.015 55.4299C196.041 55.4299 197.755 56.1366 199.155 57.5499C200.568 58.9499 201.275 60.6633 201.275 62.6899C201.275 64.7166 200.568 66.4366 199.155 67.8499ZM190.475 66.2899C191.435 67.2366 192.615 67.7099 194.015 67.7099C195.415 67.7099 196.588 67.2366 197.535 66.2899C198.495 65.3299 198.975 64.1299 198.975 62.6899C198.975 61.2499 198.495 60.0566 197.535 59.1099C196.588 58.1499 195.415 57.6699 194.015 57.6699C192.615 57.6699 191.435 58.1499 190.475 59.1099C189.528 60.0566 189.055 61.2499 189.055 62.6899C189.055 64.1299 189.528 65.3299 190.475 66.2899ZM211.273 55.6899V57.8899H205.673V69.6899H203.373V55.6899H211.273ZM220.5 69.6899L219.52 66.8699H213.56L212.58 69.6899H210.08L215.16 55.6899H217.92L222.98 69.6899H220.5ZM214.32 64.7099H218.76L216.54 58.3899L214.32 64.7099Z" fill="#091A5A"/>
<path d="M274.819 138.257V139.257H275.533L275.765 138.582L274.819 138.257ZM311.074 32.8659L311.81 32.1893L310.674 30.9532L310.128 32.5406L311.074 32.8659ZM368.407 95.2574L367.671 95.9341L368.725 97.0812L369.329 95.6451L368.407 95.2574ZM408.752 1.15456C408.544 0.643177 407.96 0.397705 407.449 0.606284L399.115 4.00528C398.604 4.21385 398.358 4.7975 398.567 5.30888C398.775 5.82027 399.359 6.06574 399.87 5.85716L407.278 2.83583L410.299 10.2434C410.508 10.7548 411.091 11.0002 411.603 10.7916C412.114 10.5831 412.36 9.99942 412.151 9.48804L408.752 1.15456ZM0.802246 139.257H274.819V137.257H0.802246V139.257ZM275.765 138.582L312.02 33.1912L310.128 32.5406L273.874 137.932L275.765 138.582ZM310.338 33.5426L367.671 95.9341L369.143 94.5808L311.81 32.1893L310.338 33.5426ZM369.329 95.6451L408.748 1.91992L406.904 1.14454L367.485 94.8698L369.329 95.6451Z" fill="#091A5A"/>
</svg>
