<svg width="44" height="39" viewBox="0 0 44 39" fill="none" xmlns="http://www.w3.org/2000/svg">
<path d="M18.1534 3.50903C18.9687 3.50903 19.6297 2.84958 19.6297 2.03613C19.6297 1.22268 18.9687 0.563234 18.1534 0.563234V3.50903ZM26.027 0.563234C25.2117 0.563234 24.5507 1.22268 24.5507 2.03613C24.5507 2.84958 25.2117 3.50903 26.027 3.50903V0.563234ZM24.0586 38.8586C24.8739 38.8586 25.5349 38.1991 25.5349 37.3857C25.5349 36.5722 24.8739 35.9128 24.0586 35.9128V38.8586ZM40.2981 21.6748C40.2981 22.4882 40.9591 23.1477 41.7744 23.1477C42.5897 23.1477 43.2507 22.4882 43.2507 21.6748H40.2981ZM26.027 21.1838C26.8424 21.1838 27.5033 20.5243 27.5033 19.7109C27.5033 18.8975 26.8424 18.238 26.027 18.238V21.1838ZM33.9007 18.238C33.0854 18.238 32.4244 18.8975 32.4244 19.7109C32.4244 20.5243 33.0854 21.1838 33.9007 21.1838V18.238ZM3.88232 21.6748V19.7109H0.929689V21.6748H3.88232ZM3.88232 19.7109V17.747H0.929689V19.7109H3.88232ZM24.0586 35.9128H18.1534V38.8586H24.0586V35.9128ZM40.2981 17.747V19.7109H43.2507V17.747H40.2981ZM0.929689 21.6748C0.929689 25.3362 0.926559 28.2305 1.23111 30.4905C1.54139 32.793 2.19515 34.6567 3.66823 36.1264L5.75606 34.0434C4.923 33.2123 4.42367 32.0738 4.15742 30.0982C3.88545 28.0799 3.88232 25.4195 3.88232 21.6748H0.929689ZM18.1534 35.9128C14.3999 35.9128 11.7334 35.9096 9.71051 35.6382C7.7301 35.3727 6.58911 34.8745 5.75606 34.0434L3.66823 36.1264C5.14134 37.596 7.00925 38.2482 9.31708 38.5579C11.5824 38.8617 14.4834 38.8586 18.1534 38.8586V35.9128ZM26.027 3.50903C29.7804 3.50903 32.447 3.51215 34.47 3.7835C36.4502 4.04913 37.5913 4.5473 38.4243 5.37843L40.5122 3.29544C39.0391 1.82576 37.171 1.17352 34.8633 0.86396C32.598 0.560111 29.697 0.563234 26.027 0.563234V3.50903ZM43.2507 17.747C43.2507 14.0856 43.2539 11.1913 42.9493 8.93121C42.6389 6.62872 41.9852 4.76513 40.5122 3.29544L38.4243 5.37843C39.2574 6.20956 39.7568 7.34791 40.0229 9.32373C40.2949 11.3419 40.2981 14.0023 40.2981 17.747H43.2507ZM18.1534 0.563234C14.4834 0.563234 11.5824 0.560111 9.31708 0.86396C7.00927 1.17352 5.14134 1.82576 3.66823 3.29544L5.75606 5.37843C6.58911 4.5473 7.7301 4.04913 9.71051 3.7835C11.7334 3.51215 14.3999 3.50903 18.1534 3.50903V0.563234ZM3.88232 17.747C3.88232 14.0023 3.88545 11.3419 4.15742 9.32373C4.42367 7.34791 4.923 6.20956 5.75606 5.37843L3.66823 3.29544C2.19515 4.76513 1.54139 6.62872 1.23111 8.93121C0.926559 11.1913 0.929689 14.0856 0.929689 17.747H3.88232ZM40.2981 19.7109V21.6748H43.2507V19.7109H40.2981ZM2.406 21.1838H26.027V18.238H2.406V21.1838ZM33.9007 21.1838H41.7744V18.238H33.9007V21.1838Z" fill="#091A5A"/>
<path d="M25.043 10.8735H33.9009" stroke="#091A5A" stroke-width="3" stroke-linecap="round"/>
<path d="M10.2798 30.5122V26.5845" stroke="#091A5A" stroke-width="3" stroke-linecap="round"/>
<path d="M10.2798 12.8371V8.90942" stroke="#091A5A" stroke-width="3" stroke-linecap="round"/>
<path d="M16.1851 30.5122V26.5845" stroke="#091A5A" stroke-width="3" stroke-linecap="round"/>
<path d="M16.1851 12.8371V8.90942" stroke="#091A5A" stroke-width="3" stroke-linecap="round"/>
<path d="M29.1451 31.4939L28.1851 32.6129C28.7379 33.0848 29.5526 33.0848 30.1051 32.6129L29.1451 31.4939ZM31.2551 31.631C31.8744 31.1019 31.9468 30.1722 31.4165 29.5542C30.8864 28.9361 29.9544 28.8641 29.3351 29.3929L31.2551 31.631ZM28.9554 29.3929C28.3359 28.8641 27.4041 28.9361 26.8738 29.5542C26.3437 30.1722 26.4159 31.1019 27.0354 31.631L28.9554 29.3929ZM38.6036 28.8136C39.0768 29.4762 39.9986 29.6306 40.6626 29.1585C41.3267 28.6863 41.4814 27.7667 41.0082 27.1043L38.6036 28.8136ZM34.8943 24.1294C31.1275 24.1294 27.6688 26.7804 27.6688 30.5119H30.6215C30.6215 28.8205 32.3108 27.0752 34.8943 27.0752V24.1294ZM27.6688 30.5119V31.4939H30.6215V30.5119H27.6688ZM30.1051 32.6129L31.2551 31.631L29.3351 29.3929L28.1851 30.3749L30.1051 32.6129ZM30.1051 30.3749L28.9554 29.3929L27.0354 31.631L28.1851 32.6129L30.1051 30.3749ZM41.0082 27.1043C39.6976 25.2692 37.4084 24.1294 34.8943 24.1294V27.0752C36.5405 27.0752 37.8955 27.8222 38.6036 28.8136L41.0082 27.1043Z" fill="#091A5A"/>
<path d="M40.625 31.4939L41.585 30.3749C41.0323 29.903 40.2176 29.903 39.665 30.3749L40.625 31.4939ZM38.5151 31.3569C37.8958 31.8859 37.8234 32.8156 38.3537 33.4336C38.8838 34.0517 39.8158 34.1237 40.4351 33.5949L38.5151 31.3569ZM40.8148 33.5949C41.4342 34.1237 42.3661 34.0517 42.8964 33.4336C43.4265 32.8156 43.3542 31.8859 42.7348 31.3569L40.8148 33.5949ZM31.1666 34.1742C30.6934 33.5116 29.7716 33.3573 29.1076 33.8294C28.4435 34.3015 28.2887 35.2212 28.762 35.8836L31.1666 34.1742ZM34.8759 38.8584C38.6426 38.8584 42.1013 36.2074 42.1013 32.4759H39.1487C39.1487 34.1673 37.4594 35.9126 34.8759 35.9126V38.8584ZM42.1013 32.4759V31.4939H39.1487V32.4759H42.1013ZM39.665 30.3749L38.5151 31.3569L40.4351 33.5949L41.585 32.6129L39.665 30.3749ZM39.665 32.6129L40.8148 33.5949L42.7348 31.3569L41.585 30.3749L39.665 32.6129ZM28.762 35.8836C30.0725 37.7186 32.3618 38.8584 34.8759 38.8584V35.9126C33.2297 35.9126 31.8746 35.1656 31.1666 34.1742L28.762 35.8836Z" fill="#091A5A"/>
</svg>
