<svg width="34" height="48" viewBox="0 0 34 48" fill="none" xmlns="http://www.w3.org/2000/svg">
<path d="M11.0841 42.5931C12.2541 46.5031 16.2541 48.2831 19.7341 46.6931C23.8141 44.8331 25.0741 35.5031 27.0441 31.5631C29.2041 27.2131 32.5141 22.1131 32.9841 17.6431C34.8941 -0.526873 9.22412 -6.89687 2.18412 10.7531C0.477452 15.0398 0.497453 18.8365 2.24412 22.1431C6.45079 30.1231 9.39745 36.9398 11.0841 42.5931Z" stroke="#091A5A" stroke-width="0.5"/>
<path d="M10.7043 31.1532L23.2043 31.1832C23.5176 31.1832 23.7576 31.0499 23.9243 30.7832C25.8443 27.6232 27.5709 24.3665 29.1043 21.0132C33.6943 10.9632 23.6443 1.15322 13.6943 3.56322C5.97427 5.43322 1.76427 14.3232 5.38427 21.5832C6.94427 24.7099 8.50094 27.7699 10.0543 30.7632C10.1174 30.8808 10.2111 30.9791 10.3255 31.0478C10.44 31.1164 10.5708 31.1529 10.7043 31.1532Z" stroke="#091A5A" stroke-width="0.5"/>
<path d="M12.8742 36.663L22.0342 35.5331C22.2146 35.5224 22.3833 35.4406 22.5033 35.3056C22.6234 35.1706 22.6848 34.9934 22.6742 34.8131C22.6636 34.6327 22.5818 34.464 22.4468 34.3439C22.3117 34.2239 22.1346 34.1624 21.9542 34.1731H12.0342C11.6609 34.1731 11.5409 34.3464 11.6742 34.693L12.2742 36.303C12.3809 36.583 12.5809 36.703 12.8742 36.663Z" stroke="#091A5A" stroke-width="0.5"/>
<path d="M13.0642 38.8332L13.3542 40.6132C13.3787 40.7508 13.4565 40.8732 13.5707 40.9538C13.685 41.0343 13.8264 41.0665 13.9642 41.0432L20.3442 40.0032C20.524 39.9745 20.6964 39.9115 20.8516 39.8179C21.0068 39.7243 21.1418 39.602 21.2487 39.4579C21.3556 39.3139 21.4323 39.1509 21.4744 38.9785C21.5166 38.806 21.5233 38.6275 21.4942 38.4532L21.4642 38.2732C21.4359 38.0993 21.3725 37.9329 21.2777 37.7835C21.1829 37.6341 21.0586 37.5046 20.9119 37.4024C20.7651 37.3003 20.5988 37.2274 20.4225 37.1881C20.2461 37.1488 20.0632 37.1437 19.8842 37.1732L13.5042 38.2232C13.4352 38.2341 13.369 38.2586 13.3094 38.2953C13.2499 38.3319 13.1982 38.3799 13.1573 38.4366C13.1164 38.4933 13.0871 38.5576 13.0711 38.6256C13.0552 38.6937 13.0528 38.7642 13.0642 38.8332Z" stroke="#091A5A" stroke-width="0.5"/>
<path d="M19.994 41.7332L14.514 42.4032C14.4998 42.4043 14.4861 42.4085 14.4736 42.4153C14.4612 42.4221 14.4504 42.4315 14.4419 42.4429C14.4334 42.4542 14.4274 42.4673 14.4243 42.4811C14.4212 42.495 14.4211 42.5093 14.424 42.5232L14.434 42.5832C14.498 43.1043 14.8469 43.5687 15.4038 43.8744C15.9608 44.1801 16.6802 44.3019 17.404 44.2132L17.624 44.1832C17.9825 44.1394 18.3313 44.0451 18.6505 43.9057C18.9697 43.7664 19.253 43.5848 19.4842 43.3712C19.7155 43.1576 19.8901 42.9163 19.9981 42.6609C20.1062 42.4056 20.1455 42.1414 20.114 41.8832L20.104 41.8232C20.1027 41.8101 20.0989 41.7973 20.0926 41.7856C20.0864 41.774 20.078 41.7636 20.0677 41.7553C20.0575 41.7469 20.0457 41.7406 20.0331 41.7369C20.0204 41.7331 20.0071 41.7318 19.994 41.7332Z" stroke="#091A5A" stroke-width="0.5"/>
<path d="M17.2539 7.69324C12.6139 7.55324 7.6339 11.5832 8.5839 16.5132C8.61161 16.6307 8.67928 16.7348 8.77533 16.8078C8.87138 16.8808 8.98982 16.9181 9.11038 16.9134C9.23093 16.9087 9.34609 16.8622 9.43613 16.7819C9.52616 16.7016 9.58547 16.5925 9.6039 16.4732C10.1706 11.8999 12.7606 9.37657 17.3739 8.90324C17.4773 8.89314 17.573 8.84416 17.6417 8.7662C17.7104 8.68823 17.7469 8.5871 17.7439 8.48324C17.7439 8.38991 17.7439 8.29657 17.7439 8.20324C17.744 8.06969 17.6927 7.94146 17.6011 7.8461C17.5095 7.75074 17.3848 7.69585 17.2539 7.69324Z" stroke="#091A5A" stroke-width="0.5"/>
<path d="M19.6302 46.4657L19.6304 46.4656C20.5845 46.0307 21.3955 45.1477 22.1065 43.9693C22.8159 42.7934 23.4108 41.3486 23.9444 39.8255C24.3357 38.7087 24.6911 37.5589 25.0344 36.4481C25.1595 36.0433 25.2831 35.6437 25.4061 35.2527C25.8645 33.7966 26.3178 32.457 26.8202 31.4519C26.8203 31.4517 26.8204 31.4515 26.8205 31.4513L27.0441 31.5631L19.6302 46.4657ZM19.6302 46.4657C16.2926 47.9907 12.4516 46.2907 11.3237 42.5217C9.63061 36.8468 6.676 30.0142 2.46527 22.0265L2.46518 22.0264M19.6302 46.4657L2.46518 22.0264M2.46518 22.0264C0.760567 18.7993 0.729908 15.0816 2.41633 10.8457L2.46518 22.0264ZM10.7034 31.4031H10.7035L23.2035 31.4331H23.2041C23.604 31.4331 23.924 31.2551 24.1361 30.9156L24.1378 30.9129C26.0628 27.7446 27.7941 24.4793 29.3315 21.1171L29.3315 21.117C31.674 15.9881 30.2767 10.9165 27.0343 7.44498C23.7965 3.97828 18.7065 2.09184 13.6353 3.32015L13.6941 3.56313L13.6353 3.32015C5.75929 5.22793 1.4687 14.2909 5.16039 21.6947L5.16042 21.6947C6.72099 24.8226 8.27826 27.8837 9.83222 30.8783L9.8322 30.8783L9.83385 30.8814C9.91828 31.0387 10.0437 31.1702 10.1968 31.262C10.3498 31.3539 10.5249 31.4026 10.7034 31.4031ZM12.0399 36.3904L12.0405 36.3921C12.108 36.5694 12.2152 36.7213 12.3755 36.8175C12.5357 36.9136 12.7192 36.9363 12.9062 36.9111C12.9068 36.911 12.9073 36.9109 12.9079 36.9108L22.0574 35.7822C22.3007 35.7656 22.5279 35.6542 22.6901 35.4718C22.8542 35.2872 22.9382 35.045 22.9237 34.7984C22.9092 34.5519 22.7973 34.3212 22.6128 34.1572C22.4301 33.9948 22.1911 33.9109 21.9473 33.9231H12.0341C11.8272 33.9231 11.5919 33.9683 11.4586 34.1608C11.3251 34.3536 11.3665 34.589 11.4403 34.7815C11.4404 34.782 11.4406 34.7824 11.4408 34.7829L12.0399 36.3904ZM13.1073 40.6533L13.108 40.6568C13.1439 40.8594 13.2584 41.0395 13.4266 41.158C13.5945 41.2764 13.8025 41.3238 14.0052 41.2897C14.0053 41.2897 14.0055 41.2897 14.0057 41.2896L20.3836 40.25L20.3441 40.0031L20.3843 40.2499L20.3839 40.2499C20.5951 40.2161 20.7978 40.1421 20.9806 40.0319C21.1634 39.9217 21.3228 39.7773 21.4493 39.6068C21.5759 39.4363 21.667 39.2429 21.7172 39.0378C21.7673 38.8326 21.7754 38.6199 21.7407 38.412L21.7109 38.2329C21.7108 38.2326 21.7108 38.2324 21.7107 38.2321C21.6769 38.0251 21.6014 37.8271 21.4887 37.6495C21.3759 37.4718 21.2283 37.3181 21.0546 37.1972C20.8809 37.0762 20.6845 36.9903 20.4768 36.944C20.2691 36.8977 20.0539 36.8918 19.8435 36.9265L13.465 37.9762C13.4649 37.9762 13.4647 37.9763 13.4645 37.9763C13.3631 37.9924 13.2658 38.0284 13.1783 38.0822C13.0907 38.1361 13.0146 38.2069 12.9544 38.2903C12.8942 38.3737 12.8511 38.4683 12.8276 38.5684C12.8042 38.6685 12.8007 38.7722 12.8174 38.8736C12.8174 38.8737 12.8175 38.8738 12.8175 38.8739L13.1073 40.6533ZM19.968 41.4845L19.968 41.4845L19.9638 41.485L14.4874 42.1545C14.4403 42.1592 14.3947 42.1734 14.3532 42.1962C14.3098 42.2201 14.2719 42.253 14.242 42.2928C14.2122 42.3325 14.1912 42.3782 14.1804 42.4266C14.1701 42.473 14.1693 42.521 14.1781 42.5676L14.1867 42.6191C14.2644 43.2348 14.6748 43.7593 15.2837 44.0935C15.8932 44.428 16.6667 44.5554 17.4345 44.4613L17.4379 44.4608L17.6545 44.4313C17.6551 44.4312 17.6556 44.4311 17.6562 44.4311C18.0373 44.3843 18.409 44.2839 18.7507 44.1348C19.0928 43.9855 19.4002 43.7892 19.654 43.5547C19.9078 43.3203 20.1049 43.0505 20.2285 42.7583C20.3525 42.4654 20.3995 42.1572 20.3623 41.8528L20.3625 41.8527L20.3607 41.842L20.3517 41.7881C20.3463 41.746 20.3334 41.7053 20.3134 41.6679C20.2917 41.6271 20.262 41.591 20.2262 41.5617C20.1904 41.5324 20.1491 41.5105 20.1048 41.4972C20.0606 41.484 20.0141 41.4797 19.968 41.4845Z" fill="#091A5A" stroke="#091A5A" stroke-width="0.5"/>
<path d="M8.33857 16.5603L8.33879 16.5603C7.84413 13.9933 8.89759 11.671 10.6517 10.0197C12.4025 8.37146 14.8702 7.37126 17.2607 7.44305C17.4581 7.44738 17.645 7.53034 17.7817 7.67263C17.9186 7.8151 17.9944 8.00566 17.9943 8.20312M8.33857 16.5603L17.7443 8.48298M8.33857 16.5603L8.34095 16.5704C8.38198 16.7443 8.48219 16.8985 8.62441 17.0066C8.76664 17.1147 8.94203 17.17 9.12054 17.163C9.29905 17.156 9.46958 17.0871 9.6029 16.9682C9.73623 16.8493 9.82405 16.6877 9.85134 16.5112L9.85145 16.5112L9.85237 16.5037C10.1307 14.2577 10.902 12.5418 12.1462 11.3295C13.3905 10.1173 15.1329 9.38435 17.3992 9.15173M8.33857 16.5603L17.3992 9.15173M17.9943 8.20312L17.7443 8.20297H17.9943V8.20312ZM17.9943 8.20312V8.20352V8.20407V8.20461V8.20516V8.20571V8.20625V8.2068V8.20735V8.20789V8.20844V8.20899V8.20954V8.21008V8.21063V8.21118V8.21172V8.21227V8.21282V8.21336V8.21391V8.21446V8.215V8.21555V8.2161V8.21664V8.21719V8.21774V8.21829V8.21883V8.21938V8.21993V8.22047V8.22102V8.22157V8.22211V8.22266V8.22321V8.22375V8.2243V8.22485V8.22539V8.22594V8.22649V8.22704V8.22758V8.22813V8.22868V8.22922V8.22977V8.23032V8.23086V8.23141V8.23196V8.2325V8.23305V8.2336V8.23414V8.23469V8.23524V8.23579V8.23633V8.23688V8.23743V8.23797V8.23852V8.23907V8.23961V8.24016V8.24071V8.24125V8.2418V8.24235V8.24289V8.24344V8.24399V8.24454V8.24508V8.24563V8.24618V8.24672V8.24727V8.24782V8.24836V8.24891V8.24946V8.25V8.25055V8.2511V8.25165V8.25219V8.25274V8.25329V8.25383V8.25438V8.25493V8.25547V8.25602V8.25657V8.25711V8.25766V8.25821V8.25875V8.2593V8.25985V8.2604V8.26094V8.26149V8.26204V8.26258V8.26313V8.26368V8.26422V8.26477V8.26532V8.26586V8.26641V8.26696V8.2675V8.26805V8.2686V8.26915V8.26969V8.27024V8.27079V8.27133V8.27188V8.27243V8.27297V8.27352V8.27407V8.27461V8.27516V8.27571V8.27625V8.2768V8.27735V8.27789V8.27844V8.27899V8.27954V8.28008V8.28063V8.28118V8.28172V8.28227V8.28282V8.28336V8.28391V8.28446V8.285V8.28555V8.2861V8.28665V8.28719V8.28774V8.28829V8.28883V8.28938V8.28993V8.29047V8.29102V8.29157V8.29211V8.29266V8.29321V8.29375V8.2943V8.29485V8.2954V8.29594V8.29649V8.29704V8.29758V8.29813V8.29868V8.29922V8.29977V8.30032V8.30086V8.30141V8.30196V8.30251V8.30305V8.3036V8.30415V8.30469V8.30524V8.30579V8.30633V8.30688V8.30743V8.30797V8.30852V8.30907V8.30961V8.31016V8.31071V8.31125V8.3118V8.31235V8.3129V8.31344V8.31399V8.31454V8.31508V8.31563V8.31618V8.31672V8.31727V8.31782V8.31836V8.31891V8.31946V8.32V8.32055V8.3211V8.32165V8.32219V8.32274V8.32329V8.32383V8.32438V8.32493V8.32547V8.32602V8.32657V8.32711V8.32766V8.32821V8.32876V8.3293V8.32985V8.3304V8.33094V8.33149V8.33204V8.33258V8.33313V8.33368V8.33422V8.33477V8.33532V8.33586V8.33641V8.33696V8.33751V8.33805V8.3386V8.33915V8.33969V8.34024V8.34079V8.34133V8.34188V8.34243V8.34297V8.34352V8.34407V8.34461V8.34516V8.34571V8.34626V8.3468V8.34735V8.3479V8.34844V8.34899V8.34954V8.35008V8.35063V8.35118V8.35172V8.35227V8.35282V8.35336V8.35391V8.35446V8.35501V8.35555V8.3561V8.35665V8.35719V8.35774V8.35829V8.35883V8.35938V8.35993V8.36047V8.36102V8.36157V8.36211V8.36266V8.36321V8.36376V8.3643V8.36485V8.3654V8.36594V8.36649V8.36704V8.36758V8.36813V8.36868V8.36922V8.36977V8.37032V8.37087V8.37141V8.37196V8.37251V8.37305V8.3736V8.37415V8.37469V8.37524V8.37579V8.37633V8.37688V8.37743V8.37797V8.37852V8.37907V8.37962V8.38016V8.38071V8.38126V8.3818V8.38235V8.3829V8.38344V8.38399V8.38454V8.38508V8.38563V8.38618V8.38672V8.38727V8.38782V8.38837V8.38891V8.38946V8.39001V8.39055V8.3911V8.39165V8.39219V8.39274V8.39329V8.39383V8.39438V8.39493V8.39547V8.39602V8.39657V8.39712V8.39766V8.39821V8.39876V8.3993V8.39985V8.4004V8.40094V8.40149V8.40204V8.40258V8.40313V8.40368V8.40422V8.40477V8.40532V8.40587V8.40641V8.40696V8.40751V8.40805V8.4086V8.40915V8.40969V8.41024V8.41079V8.41133V8.41188V8.41243V8.41298V8.41352V8.41407V8.41462V8.41516V8.41571V8.41626V8.4168V8.41735V8.4179V8.41844V8.41899V8.41954V8.42008V8.42063V8.42118V8.42173V8.42227V8.42282V8.42337V8.42391V8.42446V8.42501V8.42555V8.4261V8.42665V8.42719V8.42774V8.42829V8.42883V8.42938V8.42993V8.43048V8.43102V8.43157V8.43212V8.43266V8.43321V8.43376V8.4343V8.43485V8.4354V8.43594V8.43649V8.43704V8.43758V8.43813V8.43868V8.43923V8.43977V8.44032V8.44087V8.44141V8.44196V8.44251V8.44305V8.4436V8.44415V8.44469V8.44524V8.44579V8.44633V8.44688V8.44743V8.44798V8.44852V8.44907V8.44962V8.45016V8.45071V8.45126V8.4518V8.45235V8.4529V8.45344V8.45399V8.45454V8.45508V8.45563V8.45618V8.45673V8.45727V8.45782V8.45837V8.45891V8.45946V8.46001V8.46055V8.4611V8.46165V8.46219V8.46274V8.46329V8.46383V8.46438V8.46493V8.46548V8.46602V8.46657V8.46712V8.46766V8.46821V8.46876V8.4693V8.46985V8.4704V8.47094V8.47149V8.47204V8.47258V8.47313V8.47368V8.47423V8.47477V8.47532V8.47587V8.47641V8.47696V8.47751V8.47805V8.4786V8.47915V8.47969V8.47976M17.9943 8.47976C17.9942 8.4784 17.9942 8.47705 17.9942 8.47569L17.7443 8.48298M17.9943 8.47976C17.9981 8.64553 17.9393 8.80671 17.8297 8.93119C17.7193 9.05653 17.5654 9.13533 17.3992 9.15173M17.9943 8.47976V8.48024V8.48079V8.48133V8.48188V8.48243V8.48298H17.7443M17.7443 8.48298L17.3992 9.15173M10.7049 30.903C10.6166 30.9027 10.5299 30.8786 10.4542 30.8332C10.3788 30.788 10.3171 30.7233 10.2753 30.6461C8.72288 27.6545 7.16712 24.5963 5.608 21.4714C2.05969 14.3552 6.1891 5.63817 13.7531 3.80595C18.6319 2.62426 23.5419 4.43782 26.6691 7.78611C29.7917 11.1295 31.1244 15.9879 28.8769 20.909C27.3479 24.2529 25.6261 27.5005 23.7115 30.6517C23.5905 30.8446 23.4308 30.9328 23.2048 30.933C23.2046 30.933 23.2044 30.933 23.2043 30.933L10.7049 30.903Z" fill="white" stroke="#091A5A" stroke-width="0.5"/>
<path d="M17.7439 8.48299V8.20299C17.744 8.06945 17.6927 7.94122 17.6011 7.84586C17.5095 7.75049 17.3848 7.69561 17.2539 7.69299L17.7439 8.48299ZM17.7439 8.48299C17.7469 8.58686 17.7104 8.68799 17.6417 8.76595C17.573 8.84392 17.4773 8.8929 17.3739 8.90299L17.7439 8.48299ZM17.2464 7.94289L17.2489 7.94294C17.3128 7.94422 17.3746 7.97098 17.4208 8.01906C17.4672 8.06731 17.4939 8.13321 17.4939 8.20284V8.20299V8.20354V8.20409V8.20463V8.20518V8.20573V8.20627V8.20682V8.20737V8.20791V8.20846V8.20901V8.20955V8.2101V8.21065V8.2112V8.21174V8.21229V8.21284V8.21338V8.21393V8.21448V8.21502V8.21557V8.21612V8.21666V8.21721V8.21776V8.2183V8.21885V8.2194V8.21995V8.22049V8.22104V8.22159V8.22213V8.22268V8.22323V8.22377V8.22432V8.22487V8.22541V8.22596V8.22651V8.22705V8.2276V8.22815V8.2287V8.22924V8.22979V8.23034V8.23088V8.23143V8.23198V8.23252V8.23307V8.23362V8.23416V8.23471V8.23526V8.2358V8.23635V8.2369V8.23745V8.23799V8.23854V8.23909V8.23963V8.24018V8.24073V8.24127V8.24182V8.24237V8.24291V8.24346V8.24401V8.24455V8.2451V8.24565V8.2462V8.24674V8.24729V8.24784V8.24838V8.24893V8.24948V8.25002V8.25057V8.25112V8.25166V8.25221V8.25276V8.2533V8.25385V8.2544V8.25495V8.25549V8.25604V8.25659V8.25713V8.25768V8.25823V8.25877V8.25932V8.25987V8.26041V8.26096V8.26151V8.26206V8.2626V8.26315V8.2637V8.26424V8.26479V8.26534V8.26588V8.26643V8.26698V8.26752V8.26807V8.26862V8.26916V8.26971V8.27026V8.27081V8.27135V8.2719V8.27245V8.27299V8.27354V8.27409V8.27463V8.27518V8.27573V8.27627V8.27682V8.27737V8.27791V8.27846V8.27901V8.27956V8.2801V8.28065V8.2812V8.28174V8.28229V8.28284V8.28338V8.28393V8.28448V8.28502V8.28557V8.28612V8.28666V8.28721V8.28776V8.28831V8.28885V8.2894V8.28995V8.29049V8.29104V8.29159V8.29213V8.29268V8.29323V8.29377V8.29432V8.29487V8.29541V8.29596V8.29651V8.29706V8.2976V8.29815V8.2987V8.29924V8.29979V8.30034V8.30088V8.30143V8.30198V8.30252V8.30307V8.30362V8.30416V8.30471V8.30526V8.30581V8.30635V8.3069V8.30745V8.30799V8.30854V8.30909V8.30963V8.31018V8.31073V8.31127V8.31182V8.31237V8.31292V8.31346V8.31401V8.31456V8.3151V8.31565V8.3162V8.31674V8.31729V8.31784V8.31838V8.31893V8.31948V8.32002V8.32057V8.32112V8.32167V8.32221V8.32276V8.32331V8.32385V8.3244V8.32495V8.32549V8.32604V8.32659V8.32713V8.32768V8.32823V8.32877V8.32932V8.32987V8.33042V8.33096V8.33151V8.33206V8.3326V8.33315V8.3337V8.33424V8.33479V8.33534V8.33588V8.33643V8.33698V8.33752V8.33807V8.33862V8.33917V8.33971V8.34026V8.34081V8.34135V8.3419V8.34245V8.34299V8.34354V8.34409V8.34463V8.34518V8.34573V8.34627V8.34682V8.34737V8.34792V8.34846V8.34901V8.34956V8.3501V8.35065V8.3512V8.35174V8.35229V8.35284V8.35338V8.35393V8.35448V8.35502V8.35557V8.35612V8.35667V8.35721V8.35776V8.35831V8.35885V8.3594V8.35995V8.36049V8.36104V8.36159V8.36213V8.36268V8.36323V8.36378V8.36432V8.36487V8.36542V8.36596V8.36651V8.36706V8.3676V8.36815V8.3687V8.36924V8.36979V8.37034V8.37088V8.37143V8.37198V8.37253V8.37307V8.37362V8.37417V8.37471V8.37526V8.37581V8.37635V8.3769V8.37745V8.37799V8.37854V8.37909V8.37963V8.38018V8.38073V8.38128V8.38182V8.38237V8.38292V8.38346V8.38401V8.38456V8.3851V8.38565V8.3862V8.38674V8.38729V8.38784V8.38838V8.38893V8.38948V8.39003V8.39057V8.39112V8.39167V8.39221V8.39276V8.39331V8.39385V8.3944V8.39495V8.39549V8.39604V8.39659V8.39713V8.39768V8.39823V8.39878V8.39932V8.39987V8.40042V8.40096V8.40151V8.40206V8.4026V8.40315V8.4037V8.40424V8.40479V8.40534V8.40588V8.40643V8.40698V8.40753V8.40807V8.40862V8.40917V8.40971V8.41026V8.41081V8.41135V8.4119V8.41245V8.41299V8.41354V8.41409V8.41464V8.41518V8.41573V8.41628V8.41682V8.41737V8.41792V8.41846V8.41901V8.41956V8.4201V8.42065V8.4212V8.42174V8.42229V8.42284V8.42339V8.42393V8.42448V8.42503V8.42557V8.42612V8.42667V8.42721V8.42776V8.42831V8.42885V8.4294V8.42995V8.43049V8.43104V8.43159V8.43214V8.43268V8.43323V8.43378V8.43432V8.43487V8.43542V8.43596V8.43651V8.43706V8.4376V8.43815V8.4387V8.43924V8.43979V8.44034V8.44089V8.44143V8.44198V8.44253V8.44307V8.44362V8.44417V8.44471V8.44526V8.44581V8.44635V8.4469V8.44745V8.44799V8.44854V8.44909V8.44964V8.45018V8.45073V8.45128V8.45182V8.45237V8.45292V8.45346V8.45401V8.45456V8.4551V8.45565V8.4562V8.45674V8.45729V8.45784V8.45839V8.45893V8.45948V8.46003V8.46057V8.46112V8.46167V8.46221V8.46276V8.46331V8.46385V8.4644V8.46495V8.46549V8.46604V8.46659V8.46714V8.46768V8.46823V8.46878V8.46932V8.46987V8.47042V8.47096V8.47151V8.47206V8.4726V8.47315V8.4737V8.47424V8.47479V8.47534V8.47589V8.47643V8.47698V8.47753V8.47807V8.47862V8.47917V8.47971V8.48026V8.48081V8.48135V8.4819V8.48245V8.48299H17.4938L17.494 8.49028C17.4952 8.5308 17.4809 8.57027 17.4541 8.6007C17.4273 8.63112 17.39 8.65024 17.3496 8.65417L17.3484 8.6543C15.0017 8.89507 13.1425 9.66047 11.7969 10.9714C10.452 12.2817 9.64517 14.1127 9.35634 16.4379C9.34623 16.4986 9.31569 16.5541 9.26972 16.5951C9.22297 16.6368 9.16318 16.6609 9.10058 16.6634C9.03799 16.6658 8.97649 16.6464 8.92661 16.6085C8.87791 16.5715 8.84325 16.5191 8.82826 16.4598C8.37562 14.0991 9.33695 11.9437 10.994 10.3838C12.6554 8.81976 14.9972 7.87502 17.2464 7.94289Z" fill="#091A5A" stroke="#091A5A" stroke-width="0.5"/>
<path d="M12.8436 36.4147L12.8436 36.4147L12.8404 36.4151C12.7347 36.4295 12.6722 36.412 12.6328 36.3884C12.5932 36.3647 12.5472 36.3168 12.5081 36.2146L11.9085 34.6055L11.9085 34.6055L11.9075 34.6031C11.8804 34.5326 11.8723 34.486 11.8716 34.4589C11.8715 34.4536 11.8716 34.4494 11.8719 34.4463C11.8749 34.4449 11.879 34.4431 11.8846 34.4412C11.9109 34.4319 11.958 34.4228 12.0342 34.4228H21.9542H21.9616L21.9689 34.4224C22.0831 34.4157 22.1952 34.4546 22.2807 34.5305C22.3661 34.6065 22.4179 34.7133 22.4246 34.8275C22.4314 34.9416 22.3925 35.0538 22.3165 35.1393C22.2405 35.2247 22.1337 35.2765 22.0195 35.2832L22.0115 35.2837L22.0036 35.2847L12.8436 36.4147ZM11.8658 34.4498C11.8655 34.4501 11.8652 34.4503 11.8652 34.4503C11.8652 34.4503 11.8654 34.4501 11.8658 34.4498Z" fill="white" stroke="#091A5A" stroke-width="0.5"/>
<path d="M13.311 38.7928L13.3109 38.7922C13.3049 38.7557 13.3061 38.7184 13.3145 38.6825C13.323 38.6465 13.3384 38.6126 13.36 38.5826C13.3816 38.5527 13.409 38.5273 13.4404 38.5079C13.4719 38.4886 13.5068 38.4757 13.5433 38.4699L13.5433 38.4699L13.5448 38.4696L19.9248 37.4196L19.9249 37.4196C20.0725 37.3953 20.2231 37.3995 20.3681 37.4319C20.513 37.4642 20.6492 37.524 20.769 37.6074C20.8888 37.6908 20.9898 37.7961 21.0666 37.9172C21.1434 38.0382 21.1946 38.1728 21.2175 38.3132L21.2176 38.3141L21.2476 38.4941L21.2476 38.4941C21.2711 38.6349 21.2657 38.7792 21.2316 38.9189C21.1974 39.0586 21.1351 39.1911 21.0479 39.3087C20.9606 39.4263 20.8501 39.5266 20.7225 39.6036C20.5949 39.6805 20.4529 39.7324 20.3048 39.7561L20.304 39.7562L13.924 40.7962L13.924 40.7962L13.9227 40.7964C13.8498 40.8087 13.7751 40.7917 13.7148 40.7492C13.6548 40.7069 13.6139 40.6429 13.6007 40.5707L13.311 38.7928Z" fill="white" stroke="#091A5A" stroke-width="0.5"/>
<path d="M14.6948 42.6327L19.8732 41.9996C19.8821 42.1846 19.8476 42.3749 19.7679 42.5633C19.6755 42.7817 19.5233 42.9945 19.3146 43.1873C19.1059 43.38 18.8468 43.547 18.5505 43.6764C18.2543 43.8057 17.929 43.8938 17.5936 43.9348L17.5936 43.9348L17.5902 43.9353L17.3719 43.965C16.6928 44.048 16.0281 43.9316 15.5241 43.655C15.0528 43.3963 14.7714 43.027 14.6948 42.6327Z" fill="white" stroke="#091A5A" stroke-width="0.5"/>
</svg>
