<svg width="48" height="49" viewBox="0 0 48 49" fill="none" xmlns="http://www.w3.org/2000/svg">
<path d="M2.77414 16.8631L25.0741 16.7831C25.5408 16.7831 25.7708 16.5531 25.7641 16.0931L25.6941 3.76309C25.6889 3.07435 25.4116 2.4156 24.9227 1.93045C24.4338 1.4453 23.7729 1.17308 23.0841 1.1731H2.99414C2.2648 1.1731 1.56532 1.46282 1.0496 1.97855C0.533872 2.49427 0.244141 3.19375 0.244141 3.9231V18.1031C0.243887 18.7568 0.498702 19.3849 0.954384 19.8536C1.41007 20.3224 2.03065 20.5949 2.68414 20.6131L11.2841 20.8431C11.3961 20.8458 11.5075 20.826 11.6117 20.785C11.716 20.744 11.811 20.6825 11.8911 20.6042C11.9712 20.526 12.0349 20.4325 12.0783 20.3292C12.1218 20.226 12.1442 20.1151 12.1441 20.0031V19.6631C12.1441 19.1364 11.8841 18.8798 11.3641 18.8931C7.40414 18.9731 4.80414 18.9664 3.56414 18.8731C2.57081 18.7931 2.14081 18.2698 2.27414 17.3031C2.31414 17.0164 2.48081 16.8698 2.77414 16.8631Z" stroke="#091A5A" stroke-width="0.5"/>
<path d="M31.4741 45.5431L31.5741 44.7831C31.5982 44.6143 31.6821 44.4598 31.8106 44.3478C31.9391 44.2358 32.1037 44.1738 32.2741 44.1731H43.3341C44.3711 44.1731 45.3657 43.7622 46.0989 43.0308C46.8322 42.2994 47.2441 41.3074 47.2441 40.2731V23.1731C47.2441 22.0459 46.7964 20.9649 45.9993 20.1679C45.2023 19.3708 44.1213 18.9231 42.9941 18.9231H17.9941C16.9333 18.9231 15.9159 19.3445 15.1657 20.0947C14.4156 20.8448 13.9941 21.8622 13.9941 22.9231V40.1731C13.9941 41.234 14.4156 42.2514 15.1657 43.0015C15.9159 43.7517 16.9333 44.1731 17.9941 44.1731H29.0041C29.1402 44.1726 29.2722 44.219 29.3779 44.3047C29.4836 44.3903 29.5565 44.5099 29.5841 44.6431L29.7341 45.3831C29.7535 45.478 29.7518 45.576 29.7291 45.67C29.7064 45.7639 29.6633 45.8515 29.6029 45.9263C29.5425 46.001 29.4664 46.0611 29.3801 46.1021C29.2938 46.143 29.1995 46.1639 29.1041 46.1631L21.8341 46.1831C21.6336 46.1829 21.4391 46.2512 21.2827 46.3767C21.1263 46.5022 21.0174 46.6773 20.9741 46.8731C20.7741 47.8264 21.2808 48.2964 22.4941 48.2831C28.0608 48.2297 33.6008 48.1831 39.1141 48.1431C39.2892 48.144 39.4602 48.0935 39.6065 47.9977C39.7528 47.902 39.868 47.7652 39.938 47.604C40.008 47.4429 40.0298 47.2643 40.0007 47.0901C39.9716 46.9159 39.8929 46.7536 39.7741 46.6231C39.5341 46.3564 39.1075 46.2231 38.4941 46.2231C36.3275 46.2231 34.1541 46.1931 31.9741 46.1331C31.5875 46.1264 31.4208 45.9298 31.4741 45.5431Z" stroke="#091A5A" stroke-width="0.5"/>
<path d="M12.1339 23.4931C12.1339 23.3419 12.0739 23.197 11.967 23.0901C11.8601 22.9832 11.7151 22.9231 11.5639 22.9231H4.82391C4.67273 22.9231 4.52775 22.9832 4.42085 23.0901C4.31396 23.197 4.25391 23.3419 4.25391 23.4931V23.8531C4.25391 24.0043 4.31396 24.1492 4.42085 24.2561C4.52775 24.363 4.67273 24.4231 4.82391 24.4231H11.5639C11.7151 24.4231 11.8601 24.363 11.967 24.2561C12.0739 24.1492 12.1339 24.0043 12.1339 23.8531V23.4931Z" stroke="#091A5A" stroke-width="0.5"/>
<path d="M23.7534 3.90183C23.7535 3.80989 23.7356 3.71882 23.7006 3.63382C23.6655 3.54882 23.6141 3.47156 23.5492 3.40643C23.4843 3.34131 23.4072 3.2896 23.3224 3.25427C23.2375 3.21894 23.1465 3.20069 23.0546 3.20053L2.95465 3.16553C2.86273 3.16536 2.77167 3.1833 2.68668 3.21832C2.60168 3.25334 2.52442 3.30475 2.4593 3.36963C2.39418 3.43451 2.34247 3.5116 2.30714 3.59647C2.2718 3.68133 2.25352 3.7723 2.25335 3.86423L2.23535 14.2042C2.23518 14.2962 2.25312 14.3872 2.28815 14.4722C2.32318 14.5572 2.3746 14.6345 2.43949 14.6996C2.50439 14.7647 2.58147 14.8164 2.66634 14.8518C2.75122 14.8871 2.84222 14.9054 2.93415 14.9055L23.0341 14.9405C23.126 14.9407 23.217 14.9228 23.302 14.8878C23.387 14.8527 23.4643 14.8013 23.5294 14.7364C23.5945 14.6715 23.6462 14.5945 23.6816 14.5096C23.7169 14.4248 23.7352 14.3337 23.7354 14.2418L23.7534 3.90183Z" stroke="#091A5A" stroke-width="0.5"/>
<path d="M45.0041 36.2731C45.0678 36.2731 45.1288 36.2489 45.1738 36.2057C45.2189 36.1626 45.2441 36.1041 45.2441 36.0431V23.0331C45.2442 22.7119 45.1805 22.3939 45.0569 22.0977C44.9333 21.8014 44.7522 21.5329 44.5241 21.3076C44.2961 21.0824 44.0257 20.905 43.7287 20.7857C43.4316 20.6665 43.114 20.6078 42.7941 20.6131L17.9641 20.9531C17.4398 20.9584 16.9388 21.1714 16.5699 21.5459C16.201 21.9204 15.9941 22.4261 15.9941 22.9531V35.8231C15.9941 35.9292 16.0363 36.0309 16.1113 36.106C16.1863 36.181 16.2881 36.2231 16.3941 36.2231L45.0041 36.2731Z" stroke="#091A5A" stroke-width="0.5"/>
<path d="M45.1755 39.4185C45.1761 39.0923 45.0471 38.7792 44.8168 38.5482C44.5865 38.3171 44.2739 38.187 43.9477 38.1864L17.2877 38.1398C17.1262 38.1395 16.9662 38.171 16.8169 38.2326C16.6675 38.2941 16.5318 38.3845 16.4174 38.4985C16.303 38.6126 16.2121 38.748 16.1501 38.8971C16.088 39.0463 16.0559 39.2062 16.0556 39.3677L16.0527 41.0277C16.0522 41.3539 16.1812 41.6669 16.4115 41.898C16.6417 42.129 16.9543 42.2592 17.2805 42.2598L43.9405 42.3064C44.1021 42.3066 44.2621 42.2751 44.4114 42.2135C44.5607 42.152 44.6965 42.0616 44.8109 41.9476C44.9253 41.8336 45.0161 41.6981 45.0782 41.549C45.1403 41.3999 45.1724 41.24 45.1726 41.0785L45.1755 39.4185Z" stroke="#091A5A" stroke-width="0.5"/>
<path d="M30.754 40.9531C31.114 40.9797 31.354 40.8264 31.474 40.4931C31.5807 40.1797 31.4707 39.9564 31.144 39.8231C30.5773 39.5831 30.074 39.5831 29.634 39.8231C29.5274 39.8829 29.4423 39.9754 29.3913 40.0869C29.3402 40.1984 29.326 40.3229 29.3507 40.442C29.3754 40.5611 29.4377 40.6683 29.5284 40.7477C29.6191 40.8272 29.7333 40.8747 29.854 40.8831L30.754 40.9531Z" stroke="#091A5A" stroke-width="0.5"/>
<path d="M2.02654 17.2686L2.02649 17.2689C1.95456 17.7904 2.02766 18.2436 2.30348 18.5793C2.5783 18.9138 3.01171 19.0794 3.54407 19.1223L3.54538 19.1224C4.79942 19.2168 7.41172 19.223 11.3692 19.143L11.3705 19.143C11.5918 19.1373 11.7093 19.1902 11.7735 19.2535C11.8383 19.3175 11.8941 19.4369 11.8941 19.6631V20.0031V20.0032C11.8942 20.0818 11.8785 20.1597 11.8479 20.2322C11.8174 20.3048 11.7727 20.3704 11.7164 20.4254C11.6601 20.4804 11.5934 20.5235 11.5202 20.5523C11.447 20.5811 11.3688 20.595 11.2903 20.5932C11.2902 20.5932 11.2902 20.5932 11.2901 20.5932L2.69111 20.3632C2.10272 20.3468 1.54394 20.1014 1.13364 19.6794C0.723348 19.2573 0.493912 18.6918 0.494141 18.1032V18.1031V3.9231C0.494141 3.26005 0.757533 2.62416 1.22637 2.15532C1.69521 1.68648 2.3311 1.4231 2.99414 1.4231H23.0841C23.7069 1.42308 24.3045 1.66923 24.7466 2.10791C25.1885 2.54647 25.4392 3.14192 25.4441 3.76451C25.4441 3.76468 25.4441 3.76484 25.4441 3.76501L25.5141 16.0945L25.5142 16.0967C25.5169 16.2876 25.4702 16.3835 25.4199 16.4338C25.3689 16.4848 25.2702 16.5331 25.0741 16.5331L25.0732 16.5331L2.77324 16.6131L2.77324 16.6131L2.76846 16.6132C2.58208 16.6174 2.40399 16.6672 2.26398 16.7904C2.12355 16.914 2.05225 17.0843 2.02654 17.2686ZM2.00314 3.86382L2.00314 3.86385L1.98514 14.2038C1.98514 14.2038 1.98514 14.2038 1.98514 14.2038C1.98491 14.3286 2.00926 14.4522 2.05679 14.5675C2.10433 14.6829 2.17413 14.7878 2.26219 14.8761C2.35025 14.9645 2.45486 15.0347 2.57006 15.0826C2.68521 15.1306 2.80871 15.1554 2.93351 15.1556L23.0334 15.1906C23.1581 15.1908 23.2817 15.1665 23.3971 15.119C23.5124 15.0714 23.6173 15.0016 23.7056 14.9136C23.794 14.8255 23.8642 14.7209 23.9122 14.6058C23.9601 14.4906 23.9849 14.3671 23.9851 14.2423L24.0031 3.90235C24.0031 3.90234 24.0031 3.90233 24.0031 3.90232C24.0034 3.77756 23.979 3.65398 23.9315 3.53863C23.884 3.42327 23.8142 3.31841 23.7261 3.23003C23.638 3.14166 23.5334 3.07148 23.4182 3.02353C23.303 2.97558 23.1795 2.95081 23.0548 2.95059L2.95491 2.91559C2.9549 2.91559 2.95489 2.91559 2.95488 2.91559C2.83012 2.91536 2.70655 2.93972 2.59122 2.98724C2.47589 3.03476 2.37103 3.10452 2.28264 3.19259C2.19424 3.28065 2.12408 3.38528 2.07613 3.50043C2.02818 3.61559 2.00337 3.73906 2.00314 3.86382Z" fill="#091A5A" stroke="#091A5A" stroke-width="0.5"/>
<path d="M2.95396 3.41553L23.0539 3.45061C23.3025 3.45104 23.5036 3.65287 23.5031 3.90139L23.4851 14.2414C23.4847 14.4899 23.2828 14.691 23.0343 14.6906L2.93434 14.6555C2.68581 14.6551 2.48469 14.4533 2.48513 14.2047L2.50317 3.86474C2.50361 3.61621 2.70543 3.41509 2.95396 3.41553Z" fill="white" stroke="#091A5A" stroke-width="0.5"/>
<path d="M39.5892 46.7913L39.5883 46.7904C39.4203 46.6037 39.0844 46.4731 38.4941 46.4731C36.3256 46.4731 34.1505 46.4431 31.9687 46.383C31.7401 46.3789 31.5172 46.3178 31.3684 46.1422C31.22 45.9671 31.1952 45.7369 31.2264 45.5097C31.2264 45.5094 31.2264 45.5092 31.2265 45.5089L31.3263 44.7505L31.3266 44.7479C31.3591 44.5197 31.4726 44.3108 31.6464 44.1593C31.8201 44.0079 32.0426 43.924 32.2731 43.9231L32.2741 43.9231L43.3341 43.9231C44.305 43.9231 45.236 43.5384 45.9224 42.8538C46.6087 42.1693 46.9941 41.2409 46.9941 40.2731V23.1731C46.9941 22.1122 46.5727 21.0948 45.8226 20.3447C45.0724 19.5945 44.055 19.1731 42.9941 19.1731H17.9941C16.9996 19.1731 16.0458 19.5682 15.3425 20.2714C14.6392 20.9747 14.2441 21.9285 14.2441 22.9231V40.1731C14.2441 41.1677 14.6392 42.1215 15.3425 42.8247C16.0458 43.528 16.9996 43.9231 17.9941 43.9231L29.0032 43.9231C29.0033 43.9231 29.0035 43.9231 29.0037 43.9231H29.0041V44.1731C29.1402 44.1726 29.2722 44.219 29.3779 44.3047C29.4836 44.3903 29.5565 44.5099 29.5841 44.6431L39.5892 46.7913ZM39.5892 46.7913C39.6756 46.8863 39.7329 47.0044 39.7541 47.1313C39.7753 47.2581 39.7593 47.3878 39.7087 47.5045C39.658 47.6211 39.5749 47.7197 39.4697 47.7885C39.3645 47.8574 39.2414 47.8937 39.1154 47.8931L39.1123 47.8931C33.5988 47.9331 28.0586 47.9798 22.4917 48.0331L22.4914 48.0331C21.9044 48.0395 21.5559 47.9259 21.3742 47.7573C21.2099 47.605 21.1288 47.3547 21.2185 46.9258C21.2497 46.7862 21.3275 46.6613 21.4391 46.5717C21.5511 46.4819 21.6904 46.433 21.8339 46.4331L21.8348 46.4331L29.1038 46.4131M39.5892 46.7913L29.9792 45.3334C30.0058 45.4641 30.0034 45.5991 29.9721 45.7287C29.9407 45.8584 29.8811 45.9796 29.7974 46.0834C29.7135 46.1871 29.6077 46.2707 29.4873 46.3279C29.3675 46.3848 29.2364 46.4139 29.1038 46.4131M29.1038 46.4131C29.1032 46.4131 29.1026 46.4131 29.1021 46.4131L29.1041 46.1631L29.1048 46.4131L29.1038 46.4131ZM45.0041 36.5231H45.0037L16.3941 36.4731L45.0041 36.5231ZM45.0041 36.5231C45.1308 36.5231 45.2542 36.4749 45.3468 36.3862C45.4398 36.2971 45.4941 36.1739 45.4941 36.0431V23.0331C45.4942 22.6789 45.424 22.3282 45.2876 22.0014C45.1513 21.6746 44.9514 21.3783 44.6998 21.1298C44.4482 20.8812 44.1497 20.6853 43.8218 20.5537C43.494 20.4221 43.1434 20.3573 42.7904 20.3631L42.7907 20.3631L42.7941 20.6131M45.0041 36.5231V36.2731C45.0678 36.2731 45.1288 36.2489 45.1738 36.2057C45.2189 36.1626 45.2441 36.1041 45.2441 36.0431V23.0331C45.2442 22.7119 45.1805 22.3939 45.0569 22.0977C44.9333 21.8014 44.7522 21.5329 44.5241 21.3076C44.2961 21.0824 44.0257 20.9049 43.7287 20.7857C43.4316 20.6665 43.114 20.6078 42.7941 20.6131M42.7941 20.6131L42.79 20.3631M42.7941 20.6131L42.79 20.3631M42.79 20.3631L17.9616 20.7031C17.9615 20.7031 17.9613 20.7031 17.9612 20.7031M42.79 20.3631L17.9612 20.7031M17.9612 20.7031C17.3707 20.7092 16.8068 20.9491 16.3918 21.3705C15.9767 21.7919 15.7441 22.3606 15.7441 22.9531C15.7441 22.9531 15.7441 22.9531 15.7441 22.9531V35.8231C15.7441 35.9955 15.8126 36.1608 15.9345 36.2827C16.0563 36.4045 16.2215 36.473 16.3937 36.4731L17.9612 20.7031ZM39.7741 46.6231C39.8929 46.7536 39.9716 46.9159 40.0007 47.0901C40.0298 47.2643 40.008 47.4429 39.938 47.604C39.868 47.7652 39.7528 47.902 39.6065 47.9977C39.4602 48.0935 39.2892 48.144 39.1141 48.1431C33.6008 48.1831 28.0608 48.2297 22.4941 48.2831L39.7741 46.6231ZM45.4255 39.4189C45.4262 39.0264 45.2709 38.6497 44.9939 38.3717C44.7168 38.0937 44.3407 37.9371 43.9482 37.9364L17.2882 37.8898C17.0938 37.8895 16.9013 37.9274 16.7216 38.0015C16.5419 38.0755 16.3786 38.1843 16.2409 38.3215C16.1032 38.4587 15.9939 38.6217 15.9193 38.8011C15.8446 38.9805 15.806 39.1729 15.8056 39.3673L15.8027 41.0273C15.8021 41.4198 15.9573 41.7965 16.2344 42.0745C16.5114 42.3525 16.8876 42.5091 17.2801 42.5098L43.9401 42.5564C44.1345 42.5567 44.327 42.5188 44.5067 42.4447C44.6863 42.3706 44.8497 42.2619 44.9874 42.1247C45.125 41.9875 45.2343 41.8245 45.309 41.6451C45.3837 41.4657 45.4223 41.2733 45.4226 41.0789L45.4255 39.4189Z" fill="#091A5A" stroke="#091A5A" stroke-width="0.5"/>
<path d="M16.3946 35.9729H16.3941C16.3544 35.9729 16.3162 35.9571 16.2881 35.9289C16.2599 35.9008 16.2441 35.8627 16.2441 35.8229V22.9529V22.9529C16.2441 22.4913 16.4253 22.0487 16.748 21.7211C17.0706 21.3936 17.5086 21.2075 17.9667 21.2029L17.9667 21.2029L17.9676 21.2029L42.7976 20.8629L42.7983 20.8628C43.0848 20.8581 43.3694 20.9107 43.6355 21.0175C43.9016 21.1243 44.144 21.2833 44.3484 21.4853C44.5529 21.6872 44.7153 21.928 44.8262 22.1937C44.9371 22.4594 44.9942 22.7447 44.9941 23.0328V36.0229L16.3946 35.9729Z" fill="white" stroke="#091A5A" stroke-width="0.5"/>
<path d="M4.82391 23.1731H11.5639C11.7406 23.1731 11.8839 23.3164 11.8839 23.4931V23.8531C11.8839 24.0298 11.7406 24.1731 11.5639 24.1731H4.82391C4.64718 24.1731 4.50391 24.0298 4.50391 23.8531V23.4931C4.50391 23.3164 4.64718 23.1731 4.82391 23.1731Z" fill="#091A5A" stroke="#091A5A" stroke-width="0.5"/>
<path d="M16.3056 39.368V39.368C16.3059 39.2393 16.3314 39.1119 16.3809 38.9931C16.4303 38.8743 16.5027 38.7663 16.5939 38.6755C16.685 38.5846 16.7932 38.5126 16.9121 38.4636C17.0311 38.4145 17.1586 38.3894 17.2873 38.3896C17.2873 38.3896 17.2873 38.3896 17.2873 38.3896L43.9473 38.4363C44.2072 38.4367 44.4563 38.5404 44.6397 38.7245C44.8232 38.9086 44.926 39.158 44.9255 39.4179L44.9226 41.0779C44.9224 41.2066 44.8968 41.334 44.8474 41.4528C44.7979 41.5716 44.7256 41.6796 44.6344 41.7704C44.5433 41.8612 44.4351 41.9332 44.3161 41.9823C44.1971 42.0313 44.0696 42.0565 43.941 42.0562L17.281 42.0096C17.281 42.0096 17.281 42.0096 17.281 42.0096C17.0211 42.0092 16.772 41.9055 16.5886 41.7214C16.4051 41.5373 16.3023 41.2879 16.3027 41.028C16.3027 41.028 16.3027 41.028 16.3027 41.028L16.3056 39.368ZM30.7347 41.2022L30.7357 41.2023C30.955 41.2185 31.1623 41.1813 31.3387 41.0686C31.5157 40.9556 31.6353 40.7833 31.7094 40.5776L31.7094 40.5776L31.7108 40.5735C31.7782 40.3755 31.7889 40.1688 31.6959 39.98C31.6047 39.7949 31.436 39.6723 31.2402 39.5921C30.6215 39.3305 30.0362 39.3189 29.5144 39.6035L29.5144 39.6034L29.5118 39.6049C29.3589 39.6907 29.2371 39.8232 29.1641 39.9827C29.0911 40.1422 29.0704 40.321 29.106 40.4927C29.1417 40.6645 29.2318 40.82 29.3638 40.9356C29.4955 41.051 29.6611 41.1199 29.8357 41.1323C29.836 41.1323 29.8364 41.1323 29.8368 41.1323L30.7347 41.2022Z" fill="white" stroke="#091A5A" stroke-width="0.5"/>
<path d="M29.8734 40.6336L29.8734 40.6336L29.8714 40.6334C29.8049 40.6288 29.7426 40.6028 29.6932 40.5595C29.6438 40.5162 29.6092 40.4573 29.5955 40.3909C29.5817 40.3245 29.5895 40.2542 29.6186 40.1907C29.6475 40.1276 29.6955 40.0753 29.7552 40.0415C30.1127 39.8471 30.5331 39.8356 31.0465 40.053L31.0465 40.053L31.0495 40.0543C31.1797 40.1074 31.2287 40.1631 31.2472 40.2008C31.2641 40.2351 31.2764 40.2963 31.238 40.4102C31.1922 40.5366 31.1321 40.6071 31.0694 40.6472C31.0059 40.6877 30.9134 40.7139 30.7729 40.7035C30.7728 40.7035 30.7726 40.7035 30.7725 40.7035L29.8734 40.6336Z" fill="#091A5A" stroke="#091A5A" stroke-width="0.5"/>
</svg>
