<svg width="40" height="43" viewBox="0 0 40 43" fill="none" xmlns="http://www.w3.org/2000/svg">
<path d="M27.3441 3.11322C27.3441 2.56422 27.126 2.03771 26.7378 1.64951C26.3496 1.26131 25.8231 1.04321 25.2741 1.04321C24.7251 1.04321 24.1986 1.26131 23.8104 1.64951C23.4222 2.03771 23.2041 2.56422 23.2041 3.11322C23.2041 3.66222 23.4222 4.18873 23.8104 4.57693C24.1986 4.96514 24.7251 5.18323 25.2741 5.18323C25.8231 5.18323 26.3496 4.96514 26.7378 4.57693C27.126 4.18873 27.3441 3.66222 27.3441 3.11322Z" stroke="#091A5A" stroke-width="0.5"/>
<path d="M3.99414 13.7932C3.99512 13.7162 4.01593 13.6405 4.0545 13.5738C4.09307 13.5072 4.14804 13.4518 4.21389 13.4133C4.27973 13.3748 4.35415 13.3546 4.42966 13.3545C4.50518 13.3545 4.57915 13.3748 4.64414 13.4132L14.4641 19.2032C14.8108 19.4099 15.0841 19.3366 15.2841 18.9832L16.6041 16.6132C16.7308 16.3799 16.6775 16.1932 16.4441 16.0532L6.50414 10.1732C6.10414 9.9399 6.10414 9.70325 6.50414 9.46325L12.9541 5.66323C13.0266 5.61962 13.0891 5.56118 13.1373 5.49184C13.1855 5.42251 13.2183 5.34392 13.2335 5.2614C13.2487 5.17888 13.2459 5.09435 13.2253 5.01357C13.2047 4.93279 13.1668 4.85765 13.1141 4.79323C11.7341 3.11323 10.3341 2.79322 8.36414 4.00322C5.82414 5.54989 3.25081 7.04989 0.64414 8.50322C0.377474 8.65656 0.244141 8.88325 0.244141 9.18325V19.9232C0.244069 20.0869 0.29028 20.2467 0.377213 20.3833C0.464145 20.5199 0.588093 20.6275 0.73414 20.6932L3.29414 21.8733C3.36939 21.909 3.45249 21.9249 3.53561 21.9195C3.61872 21.9142 3.69911 21.8878 3.76917 21.8427C3.83922 21.7977 3.89665 21.7355 3.93601 21.6621C3.97538 21.5887 3.99538 21.5065 3.99414 21.4232V13.7932Z" stroke="#091A5A" stroke-width="0.5"/>
<path d="M33.2743 6.38324C33.2743 5.83955 33.0583 5.31813 32.6739 4.93369C32.2894 4.54924 31.768 4.33325 31.2243 4.33325C30.6806 4.33325 30.1592 4.54924 29.7747 4.93369C29.3903 5.31813 29.1743 5.83955 29.1743 6.38324C29.1743 6.92693 29.3903 7.44838 29.7747 7.83282C30.1592 8.21727 30.6806 8.43326 31.2243 8.43326C31.768 8.43326 32.2894 8.21727 32.6739 7.83282C33.0583 7.44838 33.2743 6.92693 33.2743 6.38324Z" stroke="#091A5A" stroke-width="0.5"/>
<path d="M39.0341 9.92328C39.0341 9.37693 38.817 8.85297 38.4307 8.46664C38.0444 8.08032 37.5204 7.86328 36.9741 7.86328C36.4277 7.86328 35.9038 8.08032 35.5174 8.46664C35.1311 8.85297 34.9141 9.37693 34.9141 9.92328C34.9141 10.4696 35.1311 10.9936 35.5174 11.3799C35.9038 11.7662 36.4277 11.9833 36.9741 11.9833C37.5204 11.9833 38.0444 11.7662 38.4307 11.3799C38.817 10.9936 39.0341 10.4696 39.0341 9.92328Z" stroke="#091A5A" stroke-width="0.5"/>
<path d="M33.264 13.1833C33.264 12.6343 33.0459 12.1078 32.6577 11.7196C32.2695 11.3314 31.743 11.1133 31.194 11.1133C30.645 11.1133 30.1185 11.3314 29.7303 11.7196C29.3421 12.1078 29.124 12.6343 29.124 13.1833C29.124 13.7323 29.3421 14.2588 29.7303 14.647C30.1185 15.0352 30.645 15.2533 31.194 15.2533C31.743 15.2533 32.2695 15.0352 32.6577 14.647C33.0459 14.2588 33.264 13.7323 33.264 13.1833Z" stroke="#091A5A" stroke-width="0.5"/>
<path d="M27.3944 16.6533C27.3944 16.1016 27.1752 15.5725 26.7852 15.1825C26.3951 14.7924 25.866 14.5732 25.3144 14.5732C24.7627 14.5732 24.2337 14.7924 23.8436 15.1825C23.4535 15.5725 23.2344 16.1016 23.2344 16.6533C23.2344 17.2049 23.4535 17.7339 23.8436 18.124C24.2337 18.5141 24.7627 18.7332 25.3144 18.7332C25.866 18.7332 26.3951 18.5141 26.7852 18.124C27.1752 17.7339 27.3944 17.2049 27.3944 16.6533Z" stroke="#091A5A" stroke-width="0.5"/>
<path d="M39.0341 16.6733C39.0341 16.1296 38.8181 15.6082 38.4336 15.2237C38.0492 14.8393 37.5278 14.6233 36.9841 14.6233C36.4404 14.6233 35.919 14.8393 35.5345 15.2237C35.1501 15.6082 34.9341 16.1296 34.9341 16.6733C34.9341 17.217 35.1501 17.7384 35.5345 18.1228C35.919 18.5073 36.4404 18.7233 36.9841 18.7233C37.5278 18.7233 38.0492 18.5073 38.4336 18.1228C38.8181 17.7384 39.0341 17.217 39.0341 16.6733Z" stroke="#091A5A" stroke-width="0.5"/>
<path d="M21.6542 20.0432C21.6542 19.4968 21.4371 18.9728 21.0508 18.5865C20.6645 18.2002 20.1405 17.9832 19.5942 17.9832C19.0478 17.9832 18.5239 18.2002 18.1375 18.5865C17.7512 18.9728 17.5342 19.4968 17.5342 20.0432C17.5342 20.5895 17.7512 21.1135 18.1375 21.4998C18.5239 21.8861 19.0478 22.1031 19.5942 22.1031C20.1405 22.1031 20.6645 21.8861 21.0508 21.4998C21.4371 21.1135 21.6542 20.5895 21.6542 20.0432Z" stroke="#091A5A" stroke-width="0.5"/>
<path d="M39.0643 23.2333C39.0643 22.687 38.8473 22.163 38.461 21.7767C38.0747 21.3904 37.5507 21.1733 37.0043 21.1733C36.458 21.1733 35.934 21.3904 35.5477 21.7767C35.1614 22.163 34.9443 22.687 34.9443 23.2333C34.9443 23.7797 35.1614 24.3036 35.5477 24.69C35.934 25.0763 36.458 25.2933 37.0043 25.2933C37.5507 25.2933 38.0747 25.0763 38.461 24.69C38.8473 24.3036 39.0643 23.7797 39.0643 23.2333Z" stroke="#091A5A" stroke-width="0.5"/>
<path d="M17.0441 36.4533L11.0441 32.9733C10.0108 32.3733 9.49414 32.67 9.49414 33.8633V35.8633C9.49413 36.0428 9.54219 36.2195 9.63348 36.3757C9.72477 36.532 9.85606 36.6622 10.0141 36.7533L19.2141 41.9933C19.5075 42.16 19.8008 42.1567 20.0941 41.9833L29.3741 36.5934C29.6941 36.4067 29.8375 36.13 29.8041 35.7633L29.5741 33.3434C29.5642 33.2279 29.5254 33.1168 29.4613 33.0203C29.3971 32.9238 29.3097 32.845 29.2071 32.7912C29.1044 32.7374 28.9899 32.7103 28.874 32.7124C28.7582 32.7146 28.6447 32.7458 28.5441 32.8033L21.8641 36.5634C21.8218 36.5878 21.7737 36.6008 21.7248 36.6009C21.6758 36.601 21.6277 36.5882 21.5852 36.564C21.5427 36.5397 21.5073 36.5047 21.4826 36.4625C21.4578 36.4202 21.4446 36.3723 21.4441 36.3233L21.5141 24.8134C21.5208 24.3867 21.3108 24.1733 20.8841 24.1733H17.9641C17.6175 24.1733 17.4475 24.35 17.4541 24.7033L17.6341 36.1033C17.634 36.1738 17.6156 36.2431 17.5809 36.3044C17.5462 36.3657 17.4963 36.4167 17.4364 36.4522C17.3765 36.4877 17.3087 36.5066 17.2398 36.5068C17.1709 36.507 17.1034 36.4885 17.0441 36.4533Z" stroke="#091A5A" stroke-width="0.5"/>
<path d="M27.0941 3.11298C27.0941 4.11814 26.2793 4.93298 25.2741 4.93298C24.2689 4.93298 23.4541 4.11814 23.4541 3.11298C23.4541 2.10782 24.2689 1.29297 25.2741 1.29297C26.2793 1.29297 27.0941 2.10782 27.0941 3.11298Z" fill="#091A5A" stroke="#091A5A" stroke-width="0.5"/>
<path d="M3.74416 13.7898H3.74414V13.793L3.74411 21.423L3.74417 21.4267C3.74478 21.4675 3.73498 21.5078 3.7157 21.5437C3.69641 21.5797 3.66827 21.6101 3.63398 21.6322C3.59966 21.6543 3.56029 21.6672 3.51958 21.6698C3.47886 21.6724 3.43816 21.6646 3.40132 21.6471L3.39879 21.646L0.838799 20.4659L0.836729 20.465C0.735684 20.4195 0.649179 20.3447 0.588128 20.2488C0.527031 20.1528 0.494089 20.0397 0.494141 19.9231V19.923V9.183C0.494141 8.97572 0.576845 8.83051 0.767423 8.72048C3.37634 7.26586 5.95192 5.76454 8.49416 4.21651L8.49498 4.21601C9.45188 3.62827 10.2309 3.4366 10.916 3.56026C11.6024 3.68416 12.2495 4.13436 12.9208 4.95146C12.9502 4.98754 12.9714 5.02966 12.983 5.07509C12.9946 5.12065 12.9963 5.16869 12.9876 5.21594C12.9789 5.2632 12.9601 5.30859 12.9321 5.3489C12.9042 5.38892 12.8681 5.42283 12.8261 5.44824C12.8258 5.44841 12.8256 5.44858 12.8253 5.44875L6.37724 9.2476L6.37723 9.2476L6.37551 9.24863C6.26239 9.3165 6.16202 9.39303 6.08763 9.48167C6.01189 9.57194 5.95414 9.68621 5.95414 9.8205C5.95414 10.0864 6.17127 10.2681 6.37746 10.3885C6.37769 10.3887 6.37793 10.3888 6.37817 10.3889L16.3155 16.2674C16.3157 16.2675 16.3159 16.2676 16.3161 16.2677C16.3998 16.3181 16.4155 16.3552 16.4188 16.3667C16.4217 16.3768 16.4282 16.4127 16.385 16.4926C16.3848 16.493 16.3846 16.4934 16.3844 16.4937L15.0666 18.8598C15.0665 18.8601 15.0663 18.8603 15.0662 18.8605C14.9849 19.0039 14.9125 19.0486 14.8644 19.0615C14.8165 19.0744 14.7325 19.0719 14.5922 18.9883L14.5911 18.9876L4.7715 13.1979C4.77145 13.1978 4.7714 13.1978 4.77135 13.1978C4.66778 13.1365 4.54986 13.1043 4.42962 13.1043C4.30931 13.1043 4.19143 13.1366 4.08771 13.1973C3.98408 13.2578 3.89816 13.3446 3.83809 13.4484C3.77805 13.5522 3.74568 13.6699 3.74416 13.7898Z" fill="#091A5A" stroke="#091A5A" stroke-width="0.5"/>
<path d="M33.0243 6.383C33.0243 7.37711 32.2184 8.18301 31.2243 8.18301C30.2302 8.18301 29.4243 7.37711 29.4243 6.383C29.4243 5.38888 30.2302 4.58301 31.2243 4.58301C32.2184 4.58301 33.0243 5.38888 33.0243 6.383Z" fill="#091A5A" stroke="#091A5A" stroke-width="0.5"/>
<path d="M38.7841 9.92303C38.7841 10.9227 37.9737 11.733 36.9741 11.733C35.9744 11.733 35.1641 10.9227 35.1641 9.92303C35.1641 8.9234 35.9744 8.11304 36.9741 8.11304C37.9737 8.11304 38.7841 8.9234 38.7841 9.92303Z" fill="#091A5A" stroke="#091A5A" stroke-width="0.5"/>
<path d="M33.014 13.183C33.014 14.1882 32.1992 15.003 31.194 15.003C30.1889 15.003 29.374 14.1882 29.374 13.183C29.374 12.1779 30.1889 11.363 31.194 11.363C32.1992 11.363 33.014 12.1779 33.014 13.183Z" fill="#091A5A" stroke="#091A5A" stroke-width="0.5"/>
<path d="M27.1444 16.653C27.1444 17.6637 26.3251 18.483 25.3144 18.483C24.3037 18.483 23.4844 17.6637 23.4844 16.653C23.4844 15.6423 24.3037 14.823 25.3144 14.823C26.3251 14.823 27.1444 15.6423 27.1444 16.653Z" fill="#091A5A" stroke="#091A5A" stroke-width="0.5"/>
<path d="M38.7841 16.6728C38.7841 17.6669 37.9782 18.4728 36.9841 18.4728C35.99 18.4728 35.1841 17.6669 35.1841 16.6728C35.1841 15.6787 35.99 14.8728 36.9841 14.8728C37.9782 14.8728 38.7841 15.6787 38.7841 16.6728Z" fill="#091A5A" stroke="#091A5A" stroke-width="0.5"/>
<path d="M21.4042 20.0432C21.4042 21.0428 20.5938 21.8531 19.5942 21.8531C18.5945 21.8531 17.7842 21.0428 17.7842 20.0432C17.7842 19.0435 18.5945 18.2332 19.5942 18.2332C20.5938 18.2332 21.4042 19.0435 21.4042 20.0432Z" fill="#091A5A" stroke="#091A5A" stroke-width="0.5"/>
<path d="M38.8143 23.2331C38.8143 24.2327 38.004 25.0431 37.0043 25.0431C36.0047 25.0431 35.1943 24.2327 35.1943 23.2331C35.1943 22.2335 36.0047 21.4231 37.0043 21.4231C38.004 21.4231 38.8143 22.2335 38.8143 23.2331Z" fill="#091A5A" stroke="#091A5A" stroke-width="0.5"/>
<path d="M17.8842 36.1036H17.8841C17.8839 36.2171 17.8543 36.3287 17.7984 36.4274C17.7424 36.5262 17.6618 36.609 17.564 36.667C17.4661 36.725 17.3546 36.7562 17.2405 36.7565C17.1269 36.7569 17.0155 36.7266 16.9178 36.6688C16.9173 36.6685 16.9169 36.6683 16.9165 36.668L10.9187 33.1893L10.9186 33.1893C10.6733 33.0468 10.4743 32.9671 10.318 32.9366C10.1638 32.9064 10.0681 32.9268 10.0061 32.9624C9.94418 32.998 9.87853 33.0701 9.82722 33.2181C9.77519 33.3682 9.74414 33.5798 9.74414 33.8631V35.8631C9.74414 35.9978 9.78021 36.1311 9.84934 36.2494C9.91838 36.3675 10.018 36.4666 10.1385 36.5362C10.1387 36.5363 10.1388 36.5364 10.139 36.5365L19.3376 41.7757L17.8842 36.1036ZM17.8842 36.1036L17.8841 36.0991M17.8842 36.1036L17.8841 36.0991M17.8841 36.0991L17.7041 24.6991L17.7041 24.6984M17.8841 36.0991L17.7041 24.6984M17.7041 24.6984C17.7015 24.5586 17.7347 24.5019 17.7568 24.4789C17.7779 24.457 17.8302 24.4231 17.9641 24.4231H20.8841C21.0593 24.4231 21.1424 24.4668 21.1835 24.5085C21.2245 24.5502 21.2669 24.634 21.2642 24.8092L21.2641 24.8116M17.7041 24.6984L21.2641 24.8116M21.2641 24.8116L21.1941 36.3216H21.1941M21.2641 24.8116L21.1941 36.3216M21.1941 36.3216L21.1942 36.3253M21.1941 36.3216L21.1942 36.3253M21.1942 36.3253C21.195 36.4179 21.2201 36.5087 21.2669 36.5887C21.3138 36.6686 21.3807 36.7348 21.4612 36.7808C21.5416 36.8267 21.6327 36.8508 21.7253 36.8506C21.8174 36.8504 21.9078 36.8262 21.9877 36.7804C21.9882 36.7802 21.9887 36.7799 21.9891 36.7796L28.6668 33.021L28.6682 33.0201M21.1942 36.3253L28.6682 33.0201M28.6682 33.0201C28.7324 32.9834 28.8047 32.9635 28.8786 32.9621C28.9525 32.9608 29.0255 32.9781 29.091 33.0124C29.1564 33.0467 29.2122 33.0969 29.2531 33.1585C29.294 33.22 29.3187 33.2909 29.325 33.3645L29.3253 33.3668M28.6682 33.0201L29.3253 33.3668M29.3253 33.3668L29.5552 35.7857C29.5552 35.7859 29.5552 35.786 29.5552 35.7861C29.5683 35.9305 29.5456 36.0419 29.4997 36.1306C29.4536 36.2194 29.3752 36.303 29.2484 36.377C29.2483 36.3771 29.2482 36.3771 29.2482 36.3772L19.9686 41.7669L19.967 41.7679M29.3253 33.3668L19.967 41.7679M19.967 41.7679C19.7499 41.8961 19.5523 41.8976 19.3379 41.7759L19.967 41.7679Z" fill="#091A5A" stroke="#091A5A" stroke-width="0.5"/>
</svg>
