<svg width="283" height="72" viewBox="0 0 283 72" fill="none" xmlns="http://www.w3.org/2000/svg">
<path d="M39.6294 10.1857C39.992 10.2656 40.3347 10.4341 40.6573 10.6911C40.6997 10.7252 40.7509 10.7466 40.805 10.7527C40.8591 10.7588 40.9138 10.7494 40.9627 10.7256C41.0116 10.7018 41.0528 10.6646 41.0814 10.6183C41.11 10.572 41.1248 10.5185 41.1242 10.4641L41.0813 5.27734" stroke="#66C444" stroke-width="2"/>
<path d="M149.179 26.5361C148.986 27.0608 148.742 27.5084 148.727 28.0737C148.712 28.7205 148.742 29.3487 148.814 29.9583" stroke="#66C444" stroke-width="2"/>
<path d="M149.093 34.0288C148.942 34.5885 148.903 35.1374 148.975 35.6756C149.061 36.3052 148.982 36.862 149.076 37.451" stroke="#66C444" stroke-width="2"/>
<path d="M148.92 41.5249C148.753 42.5628 148.739 43.6329 148.879 44.735" stroke="#66C444" stroke-width="2"/>
<path d="M22.3395 50.8485C22.2824 50.8457 22.2381 50.8264 22.2067 50.7907C22.1824 50.7636 22.1703 50.7207 22.1703 50.6622C22.1831 48.1052 22.1903 45.5476 22.1917 42.9892C22.1917 42.4581 22.3031 41.7557 22.2517 41.1346C22.1874 40.3465 22.156 39.8883 22.1574 39.7598C22.176 35.3097 22.186 30.8603 22.1874 26.4117C22.1874 25.7792 22.1396 25.2767 22.0439 24.9041L39.6301 10.1854C39.9927 10.2654 40.3353 10.4339 40.658 10.6908C40.7004 10.725 40.7516 10.7463 40.8057 10.7524C40.8597 10.7585 40.9144 10.7491 40.9634 10.7254C41.0123 10.7016 41.0535 10.6643 41.0821 10.618C41.1107 10.5717 41.1255 10.5183 41.1248 10.4638L41.082 5.27709L48.7829 0.306639C48.9628 0.190998 49.0099 0.230972 48.9242 0.426564L43.7204 12.3527C43.7104 12.3749 43.6958 12.3948 43.6777 12.411C43.6595 12.4273 43.6382 12.4394 43.6151 12.4467C43.5919 12.454 43.5676 12.4563 43.5437 12.4534C43.5197 12.4504 43.4967 12.4424 43.4762 12.4298L41.4718 11.2284C41.2305 11.0842 41.0206 11.1213 40.8422 11.3397L23.9542 32.1081C23.9233 32.1458 23.9039 32.1914 23.898 32.2398C23.8921 32.2881 23.9 32.3371 23.9209 32.3811C23.9417 32.425 23.9747 32.4622 24.0158 32.4882C24.057 32.5142 24.1047 32.5279 24.1533 32.5279H41.5039C41.6938 32.5279 41.7195 32.5928 41.581 32.7227L22.3395 50.8485Z" fill="#091A5A"/>
<path d="M41.0816 5.27734L41.1245 10.4641C41.1251 10.5185 41.1103 10.572 41.0817 10.6183C41.0531 10.6646 41.012 10.7018 40.963 10.7256C40.9141 10.7494 40.8594 10.7588 40.8053 10.7527C40.7512 10.7466 40.7 10.7252 40.6576 10.6911C40.335 10.4341 39.9923 10.2656 39.6297 10.1857L36.79 8.33757C36.77 8.32495 36.7535 8.3075 36.742 8.28684C36.7305 8.26618 36.7243 8.24296 36.7241 8.2193C36.7239 8.19564 36.7296 8.17231 36.7408 8.15144C36.7519 8.13058 36.7681 8.11284 36.7879 8.09986L41.0816 5.27734Z" fill="#091A5A"/>
<path d="M22.0435 24.9038C22.1392 25.2764 22.187 25.779 22.187 26.4114C22.1856 30.8601 22.1756 35.3094 22.157 39.7595C22.1556 39.888 22.187 40.3463 22.2512 41.1344C22.3026 41.7554 22.1913 42.4578 22.1913 42.9889C22.1899 45.5473 22.1827 48.105 22.1699 50.6619C22.1699 50.7205 22.182 50.7633 22.2063 50.7904C22.2377 50.8261 22.2819 50.8454 22.339 50.8483L0.240757 71.501C0.230692 71.5105 0.217473 71.5158 0.203672 71.5161C0.18987 71.5164 0.176469 71.5115 0.166064 71.5024C0.155659 71.4933 0.148994 71.4807 0.147363 71.467C0.145732 71.4533 0.149249 71.4395 0.157235 71.4282L21.8551 41.3549C21.9793 41.1822 21.9357 41.0865 21.7244 41.068C20.9349 40.9994 20.0912 40.948 19.1932 40.9138C14.0478 40.7182 8.91389 40.5504 3.79139 40.4105C3.77095 40.41 3.75116 40.4033 3.73465 40.3912C3.71813 40.3792 3.70567 40.3624 3.69893 40.3431C3.69219 40.3238 3.69149 40.3029 3.69691 40.2832C3.70233 40.2635 3.71362 40.2459 3.72928 40.2328L22.0435 24.9038Z" fill="#07164E"/>
<path d="M67.8892 36.811H59.0105C58.9537 36.811 58.8992 36.7884 58.8591 36.7483C58.8189 36.7081 58.7963 36.6536 58.7963 36.5968V34.027C58.7963 33.9702 58.8189 33.9157 58.8591 33.8756C58.8992 33.8354 58.9537 33.8129 59.0105 33.8129H67.5744C67.6139 33.813 67.6528 33.8042 67.6884 33.787C67.7239 33.7698 67.7551 33.7447 67.7796 33.7135C67.8042 33.6824 67.8214 33.6461 67.83 33.6073C67.8385 33.5685 67.8383 33.5282 67.8292 33.4895C66.4887 27.7074 59.6808 26.7009 55.7639 30.5171C55.7121 30.5678 55.6424 30.596 55.5701 30.5956C55.4979 30.5952 55.429 30.5662 55.3785 30.5149L53.329 28.4355C53.2989 28.4057 53.2816 28.3653 53.2808 28.3229C53.28 28.2805 53.2958 28.2395 53.3248 28.2085C57.1238 24.1182 64.058 23.8655 68.2854 27.2898C70.8702 29.3842 72.1551 32.7078 71.9345 36.0079C71.6476 40.2795 69.7323 43.2555 66.1888 44.9359C62.1242 46.8654 56.445 46.1523 53.3783 42.6959C53.3256 42.6366 53.2981 42.5591 53.3017 42.4799C53.3053 42.4007 53.3397 42.3261 53.3976 42.2718L55.4234 40.4023C55.4789 40.3518 55.5514 40.3241 55.6262 40.3249C55.7009 40.3257 55.7724 40.3549 55.8261 40.4066C59.8564 44.2891 67.069 43.0128 67.9663 36.9009C67.9763 36.841 67.9506 36.811 67.8892 36.811Z" fill="#444444"/>
<path d="M111.91 41.7517C111.607 42.26 111.211 42.649 110.721 42.9189C108.05 44.8505 105.083 45.4987 101.819 44.8634C96.4031 43.8097 92.9531 38.7472 94.3408 33.3292C96.6408 24.3369 110.167 23.6581 113.396 32.3698C113.485 32.611 113.401 32.7388 113.145 32.7531C112.339 32.7973 111.48 32.8088 110.569 32.7873C110.079 32.7766 109.957 32.9051 109.659 32.4319C106.914 28.0546 99.4976 28.5921 97.8058 33.6611C97.2297 35.3871 97.4546 37.3188 98.3926 38.8821C100.806 42.9081 107.288 42.8418 109.732 38.76C109.769 38.6972 109.824 38.6665 109.897 38.6679L113.257 38.6936C113.282 38.6937 113.306 38.6998 113.329 38.7115C113.351 38.7232 113.37 38.7402 113.384 38.7608C113.398 38.7815 113.407 38.8053 113.41 38.8301C113.413 38.855 113.409 38.8802 113.4 38.9035C113.029 39.8715 112.532 40.8209 111.91 41.7517Z" fill="#444444"/>
<path d="M91.0302 26.5635L93.1139 26.5828C92.6285 27.2966 92.001 28.0261 91.2315 28.7714C90.4749 29.5024 89.3613 30.693 87.8908 32.3434L87.0556 33.3028L84.9376 35.4293C84.9029 35.4643 84.8756 35.5059 84.8571 35.5516C84.8386 35.5973 84.8294 35.6462 84.83 35.6956C84.8306 35.745 84.841 35.7938 84.8606 35.8393C84.8802 35.8847 84.9085 35.9259 84.944 35.9604L93.7371 44.5201C93.8527 44.6329 93.8306 44.695 93.6707 44.7064C92.4886 44.7935 91.1259 44.8149 89.5826 44.7706C89.337 44.7635 89.1535 44.7021 89.0322 44.5865C86.5266 42.1894 84.0182 39.7959 81.5069 37.406C81.4526 37.3531 81.3884 37.3253 81.3142 37.3224L79.5817 37.2518C79.3276 37.2418 79.2005 37.3631 79.2005 37.6158L79.1727 44.5201C79.1727 44.5856 79.1468 44.6485 79.1006 44.695C79.0545 44.7415 78.9919 44.7679 78.9264 44.7685L76.0032 44.7942C75.9629 44.7948 75.9229 44.7873 75.8855 44.7721C75.8481 44.757 75.8141 44.7345 75.7854 44.706C75.7567 44.6775 75.7339 44.6436 75.7184 44.6061C75.7028 44.5687 75.6948 44.5285 75.6948 44.488L75.7184 26.8397C75.7184 26.8017 75.7335 26.7652 75.7604 26.7383C75.7873 26.7114 75.8238 26.6963 75.8619 26.6963L79.0399 26.6834C79.0728 26.6834 79.1044 26.6963 79.1277 26.7192C79.151 26.742 79.1641 26.7731 79.1641 26.8055L79.1962 33.9389C79.1961 33.9528 79.1992 33.9665 79.2052 33.979C79.2112 33.9915 79.2199 34.0025 79.2307 34.011C79.2415 34.0195 79.2541 34.0253 79.2674 34.0281C79.2807 34.0308 79.2945 34.0303 79.3076 34.0267C79.3561 34.0138 79.3725 33.9981 79.3568 33.9795L81.1835 34.093C82.093 33.4006 82.9453 32.619 83.7405 31.7481C85.2974 30.0434 86.7536 28.5337 88.2612 26.9254C88.4597 26.7127 88.7017 26.6242 88.9872 26.6598C89.6982 26.7498 90.3792 26.7177 91.0302 26.5635Z" fill="#444444"/>
<path d="M149.179 26.5358C148.987 27.0605 148.743 27.5081 148.728 28.0734C148.713 28.7202 148.743 29.3484 148.815 29.958L137.712 29.9558C137.683 29.9558 137.656 29.9446 137.636 29.9245C137.616 29.9044 137.604 29.8772 137.604 29.8488V26.6429C137.604 26.6139 137.616 26.5862 137.636 26.5657C137.657 26.5452 137.685 26.5337 137.714 26.5337L149.179 26.5358Z" fill="#07164E"/>
<path d="M149.179 26.5361L152.489 26.5404C152.559 26.5404 152.594 26.5754 152.594 26.6453V29.7484C152.594 29.8041 152.572 29.8574 152.533 29.8968C152.493 29.9362 152.44 29.9583 152.384 29.9583H148.814C148.742 29.3487 148.712 28.7205 148.727 28.0737C148.742 27.5084 148.986 27.0608 149.179 26.5361Z" fill="#091A5A"/>
<path d="M241.791 26.7051C241.746 26.7522 241.726 26.8022 241.731 26.855C241.692 26.8479 241.656 26.8564 241.621 26.8807C241.597 26.8978 241.578 26.9278 241.564 26.9706C239.426 32.8484 237.3 38.729 235.186 44.6124C235.167 44.664 235.133 44.7086 235.088 44.74C235.043 44.7714 234.99 44.7882 234.936 44.788H231.721C231.69 44.7879 231.66 44.7804 231.633 44.766C231.606 44.7517 231.583 44.7311 231.565 44.7059C231.548 44.6806 231.537 44.6516 231.533 44.6211C231.529 44.5907 231.533 44.5598 231.543 44.5311L233.319 39.6784C233.341 39.6172 233.349 39.5517 233.342 39.487C233.335 39.4224 233.313 39.3603 233.278 39.3058L225.11 26.7029C225.063 26.6301 225.083 26.593 225.17 26.5916L228.327 26.5231C228.414 26.5212 228.499 26.5422 228.576 26.5839C228.652 26.6256 228.716 26.6866 228.762 26.7608L234.501 36.0742C234.549 36.1527 234.589 36.1485 234.621 36.0614L237.996 26.7436C238.019 26.6783 238.063 26.6223 238.121 26.5838C238.179 26.5453 238.248 26.5262 238.317 26.5295L241.791 26.7051Z" fill="#444444"/>
<path d="M119.547 44.7558L116.615 44.7986C116.58 44.7992 116.546 44.7928 116.514 44.7799C116.482 44.7671 116.452 44.7479 116.428 44.7236C116.403 44.6993 116.383 44.6703 116.37 44.6383C116.356 44.6063 116.35 44.572 116.35 44.5373L116.352 26.9533C116.352 26.8841 116.379 26.8176 116.428 26.7686C116.477 26.7196 116.544 26.6921 116.613 26.6921L133.754 26.6899C133.823 26.6899 133.889 26.7175 133.938 26.7665C133.987 26.8155 134.015 26.8819 134.015 26.9512L134.021 44.5266C134.021 44.5959 133.994 44.6624 133.945 44.7114C133.896 44.7604 133.829 44.7879 133.76 44.7879H130.798C130.764 44.7879 130.73 44.7811 130.698 44.768C130.667 44.7549 130.638 44.7356 130.614 44.7114C130.589 44.6871 130.57 44.6583 130.557 44.6266C130.544 44.5949 130.537 44.5609 130.537 44.5266V30.0585C130.537 29.9893 130.51 29.9228 130.461 29.8738C130.412 29.8248 130.345 29.7973 130.276 29.7973H120.052C119.983 29.7973 119.917 29.8248 119.868 29.8738C119.819 29.9228 119.791 29.9893 119.791 30.0585L119.804 44.4945C119.804 44.5631 119.777 44.6289 119.729 44.6777C119.681 44.7266 119.615 44.7546 119.547 44.7558Z" fill="#444444"/>
<path d="M183.891 44.7705L180.829 44.794C180.798 44.7943 180.768 44.7885 180.74 44.777C180.712 44.7655 180.686 44.7485 180.664 44.727C180.642 44.7055 180.625 44.6799 180.613 44.6517C180.602 44.6235 180.596 44.5933 180.596 44.5627V30.0261C180.596 29.9648 180.571 29.906 180.528 29.8626C180.484 29.8192 180.426 29.7948 180.364 29.7948L174.413 29.8013C174.382 29.8013 174.351 29.7951 174.323 29.7831C174.295 29.771 174.269 29.7534 174.247 29.7313C174.226 29.7091 174.209 29.6828 174.197 29.654C174.186 29.6252 174.181 29.5945 174.182 29.5636L174.244 26.9188C174.246 26.8586 174.271 26.8014 174.314 26.7594C174.357 26.7174 174.415 26.6939 174.475 26.6939L190.29 26.6875C190.352 26.6875 190.41 26.7119 190.454 26.7552C190.497 26.7986 190.521 26.8574 190.521 26.9188L190.534 29.5657C190.534 29.627 190.51 29.6859 190.467 29.7292C190.423 29.7726 190.364 29.797 190.303 29.797H184.352C184.321 29.797 184.291 29.803 184.263 29.8146C184.235 29.8262 184.21 29.8432 184.188 29.8647C184.167 29.8862 184.15 29.9117 184.138 29.9398C184.126 29.9678 184.12 29.9979 184.12 30.0283V44.5392C184.12 44.6001 184.096 44.6586 184.054 44.702C184.011 44.7453 183.952 44.7699 183.891 44.7705Z" fill="#444444"/>
<path d="M247.04 30.0411L247.046 44.5434C247.046 44.6082 247.021 44.6703 246.975 44.7161C246.929 44.7619 246.867 44.7876 246.802 44.7876H243.811C243.746 44.7876 243.684 44.7619 243.638 44.7161C243.592 44.6703 243.566 44.6082 243.566 44.5434L243.575 26.9381C243.575 26.8733 243.601 26.8112 243.646 26.7654C243.692 26.7196 243.754 26.6939 243.819 26.6939L261.14 26.6875C261.204 26.6875 261.267 26.7132 261.312 26.759C261.358 26.8048 261.384 26.8669 261.384 26.9316V44.5434C261.384 44.6082 261.358 44.6703 261.312 44.7161C261.267 44.7619 261.204 44.7876 261.14 44.7876H258.15C258.085 44.7876 258.023 44.7619 257.977 44.7161C257.932 44.6703 257.906 44.6082 257.906 44.5434V30.0411C257.906 29.9764 257.88 29.9143 257.834 29.8685C257.789 29.8227 257.727 29.797 257.662 29.797H247.284C247.219 29.797 247.157 29.8227 247.111 29.8685C247.066 29.9143 247.04 29.9764 247.04 30.0411Z" fill="#444444"/>
<path d="M268.449 29.8679L268.451 44.638C267.212 44.8721 265.999 44.875 264.812 44.6465L264.815 31.1893C264.855 31.2035 264.871 31.2599 264.864 31.3584C264.863 31.3674 264.865 31.3764 264.869 31.3844C264.874 31.3924 264.88 31.399 264.888 31.4037C264.895 31.4083 264.904 31.4108 264.913 31.4107C264.922 31.4107 264.931 31.4081 264.939 31.4034C264.97 31.3834 264.985 31.3435 264.984 31.2835C264.958 29.8058 264.968 28.3475 265.014 26.9084C265.016 26.8508 265.041 26.7963 265.083 26.7564C265.125 26.7164 265.18 26.6942 265.239 26.6942L282.433 26.6899C282.482 26.6899 282.529 26.7093 282.563 26.7439C282.598 26.7784 282.617 26.8253 282.617 26.8741L282.636 44.5202C282.636 44.5782 282.612 44.6339 282.568 44.6754C282.524 44.717 282.464 44.7412 282.401 44.7429L279.488 44.8007C279.445 44.8016 279.402 44.7938 279.362 44.7778C279.322 44.7618 279.285 44.738 279.254 44.7077C279.223 44.6774 279.199 44.6412 279.182 44.6013C279.165 44.5614 279.156 44.5185 279.156 44.4752L279.159 30.0628C279.159 30.03 279.152 29.9975 279.139 29.9673C279.127 29.937 279.108 29.9095 279.085 29.8864C279.062 29.8633 279.034 29.8451 279.004 29.8327C278.973 29.8203 278.941 29.8141 278.908 29.8144L268.449 29.8679Z" fill="#444444"/>
<path d="M159.675 39.5884L159.664 44.6745L156.021 44.8352V36.1128C156.049 36.1242 156.068 36.1577 156.079 36.2134C156.086 36.252 156.099 36.2541 156.116 36.2198C156.191 36.0721 156.236 36.0357 156.236 35.8622C156.236 32.8584 156.236 29.8767 156.236 26.9171C156.236 26.8838 156.242 26.8509 156.255 26.8202C156.268 26.7895 156.287 26.7617 156.311 26.7384C156.334 26.7151 156.362 26.6967 156.393 26.6844C156.424 26.672 156.457 26.666 156.49 26.6665C159.444 26.7236 162.409 26.7401 165.384 26.7158C166.324 26.7087 167.07 26.7779 167.622 26.9235C169.725 27.4782 171.56 28.9944 172.22 31.0674C173.614 35.4468 170.025 39.1451 165.72 39.3529C163.744 39.4485 161.732 39.4614 159.683 39.3914C159.657 39.3908 159.631 39.3995 159.611 39.4159C159.59 39.4324 159.575 39.4555 159.57 39.4814C159.549 39.6027 159.584 39.6384 159.675 39.5884ZM159.471 30.2086V35.7209C159.471 35.8322 159.516 35.9389 159.594 36.0177C159.673 36.0964 159.78 36.1406 159.891 36.1406H165.515C166.46 36.1406 167.366 35.806 168.035 35.2104C168.703 34.6148 169.078 33.807 169.078 32.9647C169.078 32.1224 168.703 31.3146 168.035 30.7191C167.366 30.1235 166.46 29.7889 165.515 29.7889H159.891C159.78 29.7889 159.673 29.8331 159.594 29.9118C159.516 29.9905 159.471 30.0973 159.471 30.2086Z" fill="#444444"/>
<path d="M196.485 30.0094C196.508 30.1036 196.496 30.1393 196.449 30.1165V44.5781C196.449 44.6909 196.393 44.748 196.282 44.7494L193.346 44.7987C193.126 44.803 193.016 44.6952 193.016 44.4753L193.018 26.9085C193.018 26.8526 193.04 26.799 193.08 26.7593C193.119 26.7196 193.172 26.697 193.228 26.6965L205.366 26.6943C205.46 26.6943 205.508 26.7415 205.508 26.8357L205.518 29.4505C205.518 29.5404 205.474 29.5854 205.386 29.5854C202.616 29.5968 199.85 29.579 197.087 29.5318C196.78 29.5261 196.552 29.6353 196.402 29.8595C196.362 29.9195 196.39 29.9694 196.485 30.0094Z" fill="#444444"/>
<path d="M220.018 26.9988C226.259 28.8576 226.113 36.6741 220.245 38.8991C218.183 39.6808 215.048 39.4902 212.806 39.4238C212.531 39.4153 212.187 39.3382 211.874 39.4495C211.836 39.4628 211.804 39.4875 211.781 39.5201C211.758 39.5527 211.745 39.5916 211.745 39.6315L211.758 44.4649C211.758 44.5507 211.724 44.633 211.664 44.6936C211.603 44.7542 211.521 44.7883 211.435 44.7883H208.544C208.513 44.7884 208.482 44.7821 208.454 44.7699C208.426 44.7578 208.401 44.74 208.381 44.7176C208.081 44.3921 208.276 43.8996 208.263 43.5955C208.15 40.9636 208.276 38.3209 208.261 35.6869C208.244 32.7259 208.251 29.7756 208.281 26.836C208.281 26.8138 208.285 26.7918 208.294 26.7714C208.303 26.751 208.316 26.7325 208.332 26.717C208.347 26.7015 208.366 26.6893 208.387 26.681C208.408 26.6728 208.43 26.6687 208.452 26.669C211.256 26.7175 214.051 26.7346 216.838 26.7204C218.306 26.7118 219.366 26.8046 220.018 26.9988ZM211.728 30.074L211.769 35.9032C211.769 35.9725 211.797 36.0389 211.846 36.0879C211.895 36.1369 211.961 36.1644 212.03 36.1644L217.722 36.1237C218.659 36.1174 219.556 35.7785 220.215 35.1817C220.873 34.585 221.24 33.7791 221.235 32.9415V32.9072C221.232 32.4923 221.138 32.0821 220.958 31.7001C220.777 31.318 220.515 30.9715 220.185 30.6803C219.855 30.3892 219.463 30.1591 219.034 30.0033C218.604 29.8474 218.144 29.7688 217.68 29.772L211.987 29.8127C211.919 29.8133 211.853 29.841 211.804 29.89C211.756 29.9389 211.728 30.005 211.728 30.074Z" fill="#444444"/>
<path d="M149.093 34.0293C148.942 34.5889 148.902 35.1379 148.975 35.6761C149.061 36.3057 148.982 36.8625 149.076 37.4514L138.25 37.4536C138.136 37.4536 138.026 37.408 137.945 37.3269C137.863 37.2458 137.818 37.1357 137.818 37.021V34.1385C137.818 34.1096 137.829 34.0818 137.85 34.0613C137.87 34.0408 137.898 34.0293 137.927 34.0293H149.093Z" fill="#07164E"/>
<path d="M149.093 34.0293L152.49 34.0357C152.56 34.0357 152.595 34.0707 152.595 34.1407V37.2437C152.595 37.2994 152.572 37.3528 152.533 37.3921C152.494 37.4315 152.44 37.4536 152.385 37.4536L149.076 37.4514C148.982 36.8625 149.061 36.3057 148.975 35.6761C148.903 35.1379 148.942 34.5889 149.093 34.0293Z" fill="#091A5A"/>
<path d="M148.92 41.5244C148.753 42.5623 148.74 43.6324 148.88 44.7345L137.712 44.7324C137.683 44.7324 137.656 44.7211 137.636 44.701C137.616 44.681 137.604 44.6537 137.604 44.6253V41.6336C137.604 41.6047 137.616 41.5769 137.636 41.5564C137.657 41.5359 137.685 41.5244 137.714 41.5244H148.92Z" fill="#07164E"/>
<path d="M148.92 41.5244L152.487 41.5308C152.559 41.5308 152.594 41.5658 152.594 41.6358V44.5247C152.594 44.5803 152.572 44.6337 152.533 44.6731C152.494 44.7124 152.44 44.7345 152.385 44.7345H148.879C148.739 43.6324 148.753 42.5623 148.92 41.5244Z" fill="#091A5A"/>
</svg>
