<svg width="146" height="43" viewBox="0 0 146 43" fill="none" xmlns="http://www.w3.org/2000/svg">
<path d="M81.3443 32.1436H76.6566L69.2861 22.4734V32.1436H65.2176V11.5061H69.2861V20.6161L76.3618 11.5061H81.0495L73.4136 21.53L81.3443 32.1436ZM89.9293 11.0934C93.0348 11.0934 95.5997 12.1252 97.6241 14.189C99.6486 16.2331 100.661 18.7784 100.661 21.8248C100.661 24.8517 99.6486 27.3969 97.6241 29.4607C95.5997 31.5244 93.0348 32.5563 89.9293 32.5563C88.0621 32.5563 86.3423 32.1239 84.77 31.2591C83.1976 30.3746 81.9692 29.1855 81.0847 27.6918L84.5931 25.6575C85.0844 26.5616 85.8018 27.279 86.7453 27.8097C87.7083 28.3207 88.7697 28.5762 89.9293 28.5762C91.6 28.5762 93.0053 28.1438 94.1453 27.279C95.2852 26.3946 96.0321 25.2054 96.3859 23.7117H87.1875V19.9085H96.3859C96.0321 18.4147 95.2852 17.2355 94.1453 16.3707C93.0053 15.4862 91.6 15.044 89.9293 15.044C88.7697 15.044 87.7182 15.3093 86.7747 15.84C85.8313 16.351 85.1041 17.0684 84.5931 17.9922L81.0847 15.9579C81.9692 14.4641 83.1976 13.2849 84.77 12.4201C86.362 11.5356 88.0818 11.0934 89.9293 11.0934ZM123.705 11.5061V32.1436H119.666V18.7587L113.858 28.3404H113.386L107.578 18.7882V32.1436H103.51V11.5061H107.696L113.622 21.2647L119.518 11.5061H123.705ZM138.258 21.4711C140.223 22.5127 141.206 24.1441 141.206 26.3651C141.206 28.2126 140.508 29.7064 139.113 30.8463C137.717 31.9863 135.919 32.5563 133.718 32.5563C129.885 32.5563 127.32 30.9348 126.023 27.6918L129.531 25.7165C130.16 27.7212 131.556 28.7236 133.718 28.7236C134.838 28.7236 135.693 28.4878 136.282 28.0161C136.872 27.5444 137.167 26.9056 137.167 26.0997C137.167 25.2939 136.872 24.6551 136.282 24.1834C135.712 23.7117 134.887 23.4758 133.806 23.4758H131.241V19.8495H133.187C134.209 19.8495 135.005 19.6333 135.575 19.2009C136.145 18.7489 136.43 18.1396 136.43 17.373C136.43 16.6065 136.184 16.007 135.693 15.5746C135.201 15.1226 134.474 14.8966 133.511 14.8966C131.742 14.8966 130.504 15.7614 129.796 17.491L126.347 15.4862C127.743 12.5576 130.131 11.0934 133.511 11.0934C135.555 11.0934 137.226 11.6437 138.523 12.7444C139.82 13.845 140.469 15.2995 140.469 17.1077C140.469 18.9552 139.732 20.4097 138.258 21.4711Z" fill="#091A5A"/>
<path d="M54.3801 2.42395C54.3804 2.30337 54.3568 2.18392 54.3109 2.07244C54.2649 1.96096 54.1975 1.85961 54.1124 1.7742C54.0273 1.68878 53.9262 1.62097 53.8148 1.57462C53.7035 1.52828 53.5842 1.50432 53.4636 1.5041L1.85256 1.41406C1.60906 1.41366 1.37538 1.51 1.20291 1.68188C1.03043 1.85377 0.933292 2.08712 0.932856 2.33062L0.864748 41.3334C0.864531 41.454 0.888062 41.5734 0.934006 41.6849C0.97995 41.7964 1.04741 41.8977 1.13252 41.9831C1.21763 42.0686 1.31873 42.1364 1.43004 42.1827C1.54136 42.2291 1.66071 42.253 1.78129 42.2532L53.3923 42.3433C53.6358 42.3437 53.8695 42.2473 54.042 42.0755C54.2145 41.9036 54.3116 41.6702 54.312 41.4267L54.3801 2.42395Z" stroke="#848DAD" stroke-width="0.921314"/>
<path d="M52.7876 4.10741C52.7878 3.99223 52.7654 3.87814 52.7215 3.77165C52.6776 3.66516 52.6131 3.56836 52.5318 3.48677C52.4505 3.40519 52.3539 3.34042 52.2476 3.29616C52.1413 3.2519 52.0272 3.22901 51.9121 3.22882L3.61765 3.14453C3.50247 3.14432 3.38837 3.16679 3.28188 3.21067C3.17538 3.25455 3.07856 3.31897 2.99696 3.40026C2.91536 3.48155 2.85059 3.57812 2.80631 3.68445C2.76204 3.79078 2.73913 3.90479 2.73891 4.01997L2.67725 39.3775C2.67705 39.4927 2.69954 39.6068 2.74343 39.7133C2.78733 39.8198 2.85177 39.9166 2.93308 39.9981C3.01438 40.0797 3.11095 40.1445 3.21728 40.1888C3.32362 40.233 3.43765 40.2559 3.55283 40.2561L51.8472 40.3404C51.9624 40.3406 52.0765 40.3181 52.183 40.2743C52.2895 40.2304 52.3863 40.166 52.4679 40.0847C52.5495 40.0034 52.6143 39.9068 52.6586 39.8005C52.7029 39.6941 52.7258 39.5801 52.726 39.4649L52.7876 4.10741Z" stroke="#848DAD" stroke-width="0.921314"/>
<path d="M50.8789 6.13269C50.8789 5.82011 50.7547 5.52033 50.5337 5.2993C50.3127 5.07827 50.0129 4.9541 49.7003 4.9541H5.87341C5.56083 4.9541 5.26104 5.07827 5.04001 5.2993C4.81898 5.52033 4.69482 5.82011 4.69482 6.13269V37.3515C4.69482 37.664 4.81898 37.9638 5.04001 38.1848C5.26104 38.4059 5.56083 38.53 5.87341 38.53H49.7003C50.0129 38.53 50.3127 38.4059 50.5337 38.1848C50.7547 37.9638 50.8789 37.664 50.8789 37.3515V6.13269Z" stroke="#848DAD" stroke-width="0.921314"/>
<path d="M10.9572 19.4941L7.73662 19.2886C7.25474 19.2592 6.77914 19.4101 6.40225 19.7118C6.02535 20.0135 5.77407 20.4445 5.6972 20.9211C5.62032 21.3977 5.72335 21.8859 5.98628 22.2908C6.2492 22.6957 6.65323 22.9884 7.1199 23.1121C8.07922 23.3588 9.30805 23.304 10.8064 22.9476C10.9918 22.9061 11.185 22.9154 11.3656 22.9745C11.5461 23.0336 11.7074 23.1404 11.8323 23.2836C11.9572 23.4267 12.0412 23.601 12.0753 23.7879C12.1094 23.9748 12.0924 24.1674 12.0261 24.3455L8.95632 32.2941C8.81014 32.6596 8.91976 32.9108 9.28521 33.0478C23.5927 38.7763 42.2445 38.6941 49.1241 22.0157C49.2794 21.632 49.2657 21.2529 49.083 20.8783C41.34 4.96738 23.8394 4.15882 9.21671 9.96951C9.0115 10.0483 8.84608 10.2062 8.7563 10.4088C8.66653 10.6114 8.65961 10.8426 8.73704 11.0522L11.6424 18.5622C11.6834 18.6682 11.697 18.7828 11.6817 18.8955C11.6664 19.0082 11.6228 19.1156 11.5548 19.2081C11.4869 19.3005 11.3967 19.375 11.2924 19.4249C11.188 19.4749 11.0728 19.4986 10.9572 19.4941Z" stroke="#848DAD" stroke-width="0.921314"/>
<path d="M17.6177 12.1209C25.1004 15.8485 33.926 17.9727 42.2172 18.9046C42.3678 18.9238 42.5206 18.8971 42.6556 18.828C42.7907 18.7589 42.9018 18.6506 42.9744 18.5173C43.0469 18.3841 43.0775 18.232 43.0623 18.0811C43.047 17.9301 42.9865 17.7873 42.8888 17.6712C36.6121 9.94191 26.8271 9.24299 17.7137 11.3535C17.6312 11.3721 17.5564 11.4157 17.4996 11.4783C17.4428 11.541 17.4067 11.6196 17.3962 11.7035C17.3858 11.7874 17.4014 11.8725 17.441 11.9472C17.4806 12.0219 17.5424 12.0826 17.6177 12.1209Z" stroke="#848DAD" stroke-width="0.921314"/>
<path d="M17.7823 32.0068C26.3202 32.2398 38.3527 34.7203 43.2041 24.812C43.4599 24.2912 43.3 24.0491 42.7244 24.0856C33.8074 24.515 25.402 26.7808 17.5082 30.883C17.3898 30.942 17.2955 31.0389 17.2403 31.1583C17.1852 31.2777 17.1724 31.4127 17.2039 31.5419C17.2354 31.6711 17.3094 31.787 17.4142 31.8713C17.5191 31.9555 17.6486 32.0032 17.7823 32.0068Z" stroke="#848DAD" stroke-width="0.921314"/>
<path d="M54.312 41.4267C54.3116 41.6702 54.2145 41.9036 54.042 42.0755C53.8695 42.2473 53.6358 42.3437 53.3923 42.3433L1.78129 42.2532C1.66071 42.253 1.54136 42.2291 1.43004 42.1827C1.31873 42.1364 1.21763 42.0686 1.13252 41.9831C1.04741 41.8977 0.97995 41.7964 0.934006 41.6849C0.888062 41.5734 0.864531 41.454 0.864748 41.3334L0.932856 2.33062C0.933292 2.08712 1.03043 1.85377 1.20291 1.68188C1.37538 1.51 1.60906 1.41366 1.85256 1.41406L53.4636 1.5041C53.5842 1.50432 53.7035 1.52828 53.8148 1.57462C53.9262 1.62097 54.0273 1.68878 54.1124 1.7742C54.1975 1.85961 54.2649 1.96096 54.3109 2.07244C54.3568 2.18392 54.3804 2.30337 54.3801 2.42395L54.312 41.4267ZM52.7873 4.10658C52.7875 3.9914 52.765 3.87731 52.7211 3.77082C52.6772 3.66433 52.6128 3.56753 52.5315 3.48595C52.4501 3.40436 52.3536 3.33959 52.2472 3.29533C52.1409 3.25107 52.0269 3.22819 51.9117 3.22799L3.61729 3.14371C3.50211 3.14349 3.38801 3.16596 3.28152 3.20984C3.17502 3.25372 3.0782 3.31814 2.9966 3.39943C2.915 3.48073 2.85023 3.5773 2.80595 3.68363C2.76167 3.78996 2.73877 3.90397 2.73855 4.01915L2.67688 39.3767C2.67669 39.4919 2.69917 39.6059 2.74307 39.7124C2.78696 39.8189 2.85141 39.9157 2.93271 39.9973C3.01402 40.0789 3.11058 40.1437 3.21692 40.1879C3.32326 40.2322 3.43728 40.2551 3.55246 40.2553L51.8469 40.3396C51.9621 40.3398 52.0762 40.3173 52.1827 40.2734C52.2891 40.2295 52.3859 40.1651 52.4675 40.0838C52.5491 40.0025 52.6139 39.906 52.6582 39.7996C52.7025 39.6933 52.7254 39.5793 52.7256 39.4641L52.7873 4.10658Z" fill="#081A5A"/>
<path d="M52.726 39.4649C52.7258 39.5801 52.7029 39.6941 52.6586 39.8005C52.6143 39.9068 52.5495 40.0034 52.4679 40.0847C52.3863 40.166 52.2895 40.2304 52.183 40.2743C52.0765 40.3181 51.9624 40.3406 51.8472 40.3404L3.55283 40.2561C3.43765 40.2559 3.32362 40.233 3.21728 40.1888C3.11095 40.1445 3.01438 40.0797 2.93308 39.9981C2.85177 39.9166 2.78733 39.8198 2.74343 39.7133C2.69954 39.6068 2.67705 39.4927 2.67725 39.3775L2.73891 4.01997C2.73913 3.90479 2.76204 3.79078 2.80631 3.68445C2.85059 3.57812 2.91536 3.48155 2.99696 3.40026C3.07856 3.31897 3.17538 3.25455 3.28188 3.21067C3.38837 3.16679 3.50247 3.14432 3.61765 3.14453L51.9121 3.22882C52.0272 3.22901 52.1413 3.2519 52.2476 3.29616C52.3539 3.34042 52.4505 3.40519 52.5318 3.48677C52.6131 3.56836 52.6776 3.66516 52.7215 3.77165C52.7654 3.87814 52.7878 3.99223 52.7876 4.10741L52.726 39.4649ZM50.8793 6.13307C50.8793 5.82049 50.7551 5.52071 50.5341 5.29968C50.3131 5.07865 50.0133 4.95448 49.7007 4.95448H5.87382C5.56124 4.95448 5.26145 5.07865 5.04042 5.29968C4.81939 5.52071 4.69524 5.82049 4.69524 6.13307V37.3519C4.69524 37.6644 4.81939 37.9642 5.04042 38.1852C5.26145 38.4063 5.56124 38.5304 5.87382 38.5304H49.7007C50.0133 38.5304 50.3131 38.4063 50.5341 38.1852C50.7551 37.9642 50.8793 37.6644 50.8793 37.3519V6.13307Z" fill="white"/>
<path d="M50.8799 37.3515C50.8799 37.664 50.7557 37.9638 50.5347 38.1848C50.3136 38.4059 50.0139 38.53 49.7013 38.53H5.87439C5.56181 38.53 5.26201 38.4059 5.04098 38.1848C4.81996 37.9638 4.6958 37.664 4.6958 37.3515V6.13269C4.6958 5.82011 4.81996 5.52033 5.04098 5.2993C5.26201 5.07827 5.56181 4.9541 5.87439 4.9541H49.7013C50.0139 4.9541 50.3136 5.07827 50.5347 5.2993C50.7557 5.52033 50.8799 5.82011 50.8799 6.13269V37.3515ZM10.9587 19.4945L7.7382 19.289C7.25631 19.2596 6.78071 19.4105 6.40382 19.7122C6.02693 20.0139 5.77565 20.4449 5.69877 20.9215C5.6219 21.3982 5.72493 21.8863 5.98785 22.2912C6.25077 22.6961 6.65481 22.9889 7.12148 23.1125C8.08079 23.3592 9.30963 23.3044 10.808 22.9481C10.9934 22.9065 11.1866 22.9158 11.3671 22.9749C11.5477 23.0341 11.7089 23.1408 11.8339 23.284C11.9588 23.4272 12.0427 23.6014 12.0768 23.7883C12.111 23.9752 12.094 24.1679 12.0277 24.3459L8.95789 32.2945C8.81171 32.66 8.92133 32.9112 9.28679 33.0483C23.5943 38.7767 42.2461 38.6945 49.1257 22.0162C49.281 21.6324 49.2673 21.2533 49.0846 20.8787C41.3416 4.96781 23.841 4.15924 9.21828 9.96994C9.01307 10.0488 8.84765 10.2066 8.75787 10.4092C8.6681 10.6119 8.66119 10.843 8.73862 11.0526L11.644 18.5626C11.685 18.6687 11.6985 18.7832 11.6832 18.8959C11.668 19.0087 11.6244 19.1161 11.5564 19.2085C11.4885 19.3009 11.3983 19.3754 11.2939 19.4254C11.1896 19.4753 11.0744 19.4991 10.9587 19.4945Z" fill="#081A5A"/>
<path d="M11.6434 18.5622L8.73802 11.0522C8.66059 10.8426 8.6675 10.6114 8.75728 10.4088C8.84705 10.2062 9.01247 10.0483 9.21768 9.96951C23.8404 4.15882 41.341 4.96738 49.084 20.8783C49.2667 21.2529 49.2804 21.632 49.1251 22.0157C42.2454 38.6941 23.5937 38.7763 9.28619 33.0478C8.92074 32.9108 8.81111 32.6596 8.95729 32.2941L12.0271 24.3455C12.0934 24.1674 12.1104 23.9748 12.0762 23.7879C12.0421 23.601 11.9582 23.4267 11.8333 23.2836C11.7083 23.1404 11.5471 23.0336 11.3665 22.9745C11.186 22.9154 10.9928 22.9061 10.8074 22.9476C9.30903 23.304 8.08019 23.3588 7.12088 23.1121C6.65421 22.9884 6.25018 22.6957 5.98725 22.2908C5.72433 21.8859 5.6213 21.3977 5.69818 20.9211C5.77505 20.4445 6.02633 20.0135 6.40322 19.7118C6.78011 19.4101 7.25571 19.2592 7.7376 19.2886L10.9581 19.4941C11.0738 19.4986 11.189 19.4749 11.2933 19.4249C11.3977 19.375 11.4879 19.3005 11.5558 19.2081C11.6238 19.1156 11.6674 19.0082 11.6827 18.8955C11.6979 18.7828 11.6844 18.6682 11.6434 18.5622ZM17.6185 12.1211C25.1011 15.8487 33.9268 17.9729 42.218 18.9048C42.3685 18.924 42.5214 18.8972 42.6564 18.8281C42.7915 18.759 42.9026 18.6508 42.9751 18.5175C43.0477 18.3843 43.0783 18.2322 43.0631 18.0813C43.0478 17.9303 42.9873 17.7875 42.8896 17.6714C36.6129 9.94211 26.8279 9.24318 17.7144 11.3537C17.632 11.3723 17.5572 11.4159 17.5004 11.4785C17.4436 11.5412 17.4075 11.6198 17.397 11.7037C17.3865 11.7876 17.4022 11.8727 17.4418 11.9474C17.4814 12.0221 17.5431 12.0828 17.6185 12.1211ZM17.783 32.0063C26.3209 32.2393 38.3534 34.7198 43.2048 24.8115C43.4606 24.2907 43.3007 24.0486 42.7251 24.0851C33.8081 24.5145 25.4026 26.7803 17.5089 30.8825C17.3905 30.9415 17.2962 31.0384 17.241 31.1578C17.1859 31.2772 17.1731 31.4122 17.2046 31.5414C17.2361 31.6706 17.3101 31.7865 17.4149 31.8707C17.5197 31.955 17.6493 32.0027 17.783 32.0063Z" fill="white"/>
<path d="M42.2172 18.9046C33.926 17.9727 25.1004 15.8485 17.6177 12.1209C17.5424 12.0826 17.4806 12.0219 17.441 11.9472C17.4014 11.8725 17.3858 11.7874 17.3962 11.7035C17.4067 11.6196 17.4428 11.541 17.4996 11.4783C17.5564 11.4157 17.6312 11.3721 17.7137 11.3535C26.8271 9.24299 36.6121 9.94191 42.8888 17.6712C42.9865 17.7873 43.047 17.9301 43.0623 18.0811C43.0775 18.232 43.0469 18.3841 42.9744 18.5173C42.9018 18.6506 42.7907 18.7589 42.6556 18.828C42.5206 18.8971 42.3678 18.9238 42.2172 18.9046Z" fill="#081A5A"/>
<path d="M43.2041 24.812C38.3527 34.7203 26.3202 32.2398 17.7823 32.0068C17.6486 32.0032 17.5191 31.9555 17.4142 31.8713C17.3094 31.787 17.2354 31.6711 17.2039 31.5419C17.1724 31.4127 17.1852 31.2777 17.2403 31.1583C17.2955 31.0389 17.3898 30.942 17.5082 30.883C25.402 26.7808 33.8074 24.515 42.7244 24.0856C43.3 24.0491 43.4599 24.2912 43.2041 24.812Z" fill="#081A5A"/>
</svg>
