<svg width="472" height="85" viewBox="0 0 472 85" fill="none" xmlns="http://www.w3.org/2000/svg">
<path d="M101.195 46.7628C98.9554 49.0028 96.2141 50.1228 92.9714 50.1228C89.7288 50.1228 86.9874 49.0028 84.7474 46.7628C82.5074 44.5014 81.3874 41.7601 81.3874 38.5388C81.3874 35.3174 82.5074 32.5868 84.7474 30.3468C86.9874 28.0854 89.7288 26.9548 92.9714 26.9548C96.2141 26.9548 98.9554 28.0854 101.195 30.3468C103.435 32.5868 104.555 35.3174 104.555 38.5388C104.555 41.7601 103.435 44.5014 101.195 46.7628ZM86.3154 45.2268C88.1074 47.0401 90.3261 47.9468 92.9714 47.9468C95.6168 47.9468 97.8354 47.0401 99.6274 45.2268C101.419 43.3921 102.315 41.1628 102.315 38.5388C102.315 35.9148 101.419 33.6961 99.6274 31.8828C97.8354 30.0481 95.6168 29.1308 92.9714 29.1308C90.3261 29.1308 88.1074 30.0481 86.3154 31.8828C84.5234 33.6961 83.6274 35.9148 83.6274 38.5388C83.6274 41.1628 84.5234 43.3921 86.3154 45.2268ZM126.914 46.7628C124.674 49.0028 121.933 50.1228 118.69 50.1228C115.448 50.1228 112.706 49.0028 110.466 46.7628C108.226 44.5014 107.106 41.7601 107.106 38.5388C107.106 35.3174 108.226 32.5868 110.466 30.3468C112.706 28.0854 115.448 26.9548 118.69 26.9548C121.933 26.9548 124.674 28.0854 126.914 30.3468C129.154 32.5868 130.274 35.3174 130.274 38.5388C130.274 41.7601 129.154 44.5014 126.914 46.7628ZM112.034 45.2268C113.826 47.0401 116.045 47.9468 118.69 47.9468C121.336 47.9468 123.554 47.0401 125.346 45.2268C127.138 43.3921 128.034 41.1628 128.034 38.5388C128.034 35.9148 127.138 33.6961 125.346 31.8828C123.554 30.0481 121.336 29.1308 118.69 29.1308C116.045 29.1308 113.826 30.0481 112.034 31.8828C110.242 33.6961 109.346 35.9148 109.346 38.5388C109.346 41.1628 110.242 43.3921 112.034 45.2268ZM152.633 46.7628C150.393 49.0028 147.652 50.1228 144.409 50.1228C141.166 50.1228 138.425 49.0028 136.185 46.7628C133.945 44.5014 132.825 41.7601 132.825 38.5388C132.825 35.3174 133.945 32.5868 136.185 30.3468C138.425 28.0854 141.166 26.9548 144.409 26.9548C147.652 26.9548 150.393 28.0854 152.633 30.3468C154.873 32.5868 155.993 35.3174 155.993 38.5388C155.993 41.7601 154.873 44.5014 152.633 46.7628ZM137.753 45.2268C139.545 47.0401 141.764 47.9468 144.409 47.9468C147.054 47.9468 149.273 47.0401 151.065 45.2268C152.857 43.3921 153.753 41.1628 153.753 38.5388C153.753 35.9148 152.857 33.6961 151.065 31.8828C149.273 30.0481 147.054 29.1308 144.409 29.1308C141.764 29.1308 139.545 30.0481 137.753 31.8828C135.961 33.6961 135.065 35.9148 135.065 38.5388C135.065 41.1628 135.961 43.3921 137.753 45.2268ZM167.184 34.5388L169.104 27.3388H171.024L169.744 34.5388H167.184ZM171.664 34.5388L173.584 27.3388H175.504L174.224 34.5388H171.664ZM194.06 27.3388V29.4508H187.18V49.7388H184.94V29.4508H178.06V27.3388H194.06ZM211.98 47.6268H214.38V54.0268H212.14V49.7388H196.14V54.0268H193.9V47.6268H195.724C197.196 45.8988 197.932 43.2321 197.932 39.6268V27.3388H211.98V47.6268ZM198.38 47.6268H209.74V29.4508H200.172V39.6908C200.172 43.2321 199.575 45.8774 198.38 47.6268ZM234.33 26.9548C237.722 26.9548 240.495 28.0748 242.65 30.3148C244.826 32.5334 245.914 35.2748 245.914 38.5388C245.914 41.8028 244.826 44.5548 242.65 46.7948C240.495 49.0134 237.722 50.1228 234.33 50.1228C232.26 50.1228 230.351 49.6214 228.602 48.6188C226.874 47.6161 225.551 46.2721 224.634 44.5868L226.618 43.4668C227.322 44.8321 228.367 45.9201 229.754 46.7308C231.14 47.5414 232.666 47.9468 234.33 47.9468C236.911 47.9468 239.044 47.1574 240.73 45.5788C242.415 44.0001 243.375 42.0054 243.61 39.5948H231.354V37.4828H243.61C243.375 35.0721 242.415 33.0774 240.73 31.4988C239.044 29.9201 236.911 29.1308 234.33 29.1308C232.666 29.1308 231.14 29.5361 229.754 30.3468C228.367 31.1574 227.322 32.2454 226.618 33.6108L224.634 32.4588C225.572 30.7734 226.906 29.4401 228.634 28.4588C230.362 27.4561 232.26 26.9548 234.33 26.9548ZM265.441 49.7388H262.497L252.001 38.8908V49.7388H249.761V27.3388H252.001V37.5788L262.177 27.3388H265.121L254.369 38.2188L265.441 49.7388ZM276.881 50.1228C273.489 50.1228 270.684 49.0028 268.465 46.7628C266.247 44.5228 265.137 41.7814 265.137 38.5388C265.137 35.2961 266.247 32.5548 268.465 30.3148C270.684 28.0748 273.489 26.9548 276.881 26.9548C278.951 26.9548 280.849 27.4561 282.577 28.4588C284.305 29.4401 285.639 30.7734 286.577 32.4588L284.593 33.6108C283.889 32.2454 282.844 31.1574 281.457 30.3468C280.071 29.5361 278.545 29.1308 276.881 29.1308C274.087 29.1308 271.804 30.0374 270.033 31.8508C268.263 33.6641 267.377 35.8934 267.377 38.5388C267.377 41.1841 268.263 43.4134 270.033 45.2268C271.804 47.0401 274.087 47.9468 276.881 47.9468C278.545 47.9468 280.071 47.5414 281.457 46.7308C282.844 45.9201 283.889 44.8321 284.593 43.4668L286.577 44.5868C285.66 46.2721 284.327 47.6161 282.577 48.6188C280.849 49.6214 278.951 50.1228 276.881 50.1228ZM306.261 27.3388V49.7388H304.021V29.4508H292.501V49.7388H290.261V27.3388H306.261ZM313.626 47.6268H324.506V49.7388H311.386V27.3388H324.346V29.4508H313.626V37.3868H323.546V39.4988H313.626V47.6268ZM336.355 27.3388C338.36 27.3388 340.035 28.0108 341.379 29.3548C342.723 30.6988 343.395 32.3734 343.395 34.3788C343.395 36.3841 342.723 38.0588 341.379 39.4028C340.035 40.7468 338.36 41.4188 336.355 41.4188H330.595V49.7388H328.355V27.3388H336.355ZM336.355 39.3068C337.742 39.3068 338.883 38.8481 339.779 37.9308C340.696 36.9921 341.155 35.8081 341.155 34.3788C341.155 32.9494 340.696 31.7761 339.779 30.8588C338.883 29.9201 337.742 29.4508 336.355 29.4508H330.595V39.3068H336.355ZM360.685 27.3388V29.4508H353.805V49.7388H351.565V29.4508H344.685V27.3388H360.685ZM376.366 27.3388V29.4508H366.126V49.7388H363.886V27.3388H376.366ZM387.574 27.3388C389.579 27.3388 391.254 28.0108 392.598 29.3548C393.942 30.6988 394.614 32.3734 394.614 34.3788C394.614 36.3841 393.942 38.0588 392.598 39.4028C391.254 40.7468 389.579 41.4188 387.574 41.4188H381.814V49.7388H379.574V27.3388H387.574ZM387.574 39.3068C388.96 39.3068 390.102 38.8481 390.998 37.9308C391.915 36.9921 392.374 35.8081 392.374 34.3788C392.374 32.9494 391.915 31.7761 390.998 30.8588C390.102 29.9201 388.96 29.4508 387.574 29.4508H381.814V39.3068H387.574ZM410.536 27.3388H412.84L405.384 44.8428C404.637 46.6348 403.688 47.9254 402.536 48.7148C401.384 49.5041 399.955 49.8454 398.248 49.7388V47.6908C399.443 47.8188 400.424 47.6481 401.192 47.1788C401.981 46.6881 402.632 45.8454 403.144 44.6508L403.592 43.5948L395.88 27.3388H398.184L404.648 41.0988L410.536 27.3388ZM431.73 27.3388V49.7388H429.49V29.4508H417.97V49.7388H415.73V27.3388H431.73ZM452.855 27.3388V49.7388H450.615V29.4508H439.095V49.7388H436.855V27.3388H452.855ZM461.18 27.3388L459.26 34.5388H457.34L458.62 27.3388H461.18ZM465.66 27.3388L463.74 34.5388H461.82L463.1 27.3388H465.66Z" fill="white"/>
<path d="M26.4382 59.9315C26.3716 59.9282 26.3199 59.9057 26.2832 59.864C26.2549 59.8324 26.2407 59.7824 26.2407 59.714C26.2557 56.7295 26.2641 53.7441 26.2657 50.7579C26.2657 50.138 26.3957 49.3181 26.3357 48.5933C26.2607 47.6734 26.2241 47.1385 26.2257 46.9885C26.2474 41.7943 26.2591 36.6009 26.2607 31.4084C26.2607 30.6702 26.2049 30.0836 26.0933 29.6487" fill="#D1DAFF"/>
<path d="M46.6187 12.4692C47.0419 12.5625 47.4419 12.7592 47.8185 13.0591C47.8679 13.099 47.9277 13.1239 47.9908 13.131C48.054 13.1382 48.1178 13.1272 48.1749 13.0994C48.232 13.0716 48.2801 13.0282 48.3135 12.9742C48.3468 12.9201 48.3641 12.8577 48.3634 12.7942L48.3134 6.74011" fill="#D1DAFF"/>
<path d="M26.4382 59.9319C26.3716 59.9286 26.3199 59.9061 26.2832 59.8644C26.2549 59.8327 26.2407 59.7827 26.2407 59.7144C26.2557 56.7299 26.2641 53.7445 26.2657 50.7583C26.2657 50.1384 26.3957 49.3185 26.3357 48.5936C26.2607 47.6738 26.2241 47.1389 26.2257 46.9889C26.2474 41.7947 26.2591 36.6013 26.2607 31.4088C26.2607 30.6706 26.2049 30.084 26.0933 29.6491L46.6201 12.4692C47.0434 12.5625 47.4433 12.7592 47.8199 13.0591C47.8694 13.099 47.9292 13.1239 47.9923 13.131C48.0554 13.1382 48.1192 13.1272 48.1764 13.0994C48.2335 13.0716 48.2815 13.0282 48.3149 12.9742C48.3483 12.9201 48.3656 12.8577 48.3648 12.7942L48.3148 6.74011L57.3034 0.938511C57.5134 0.803531 57.5684 0.85019 57.4684 1.07849L51.3944 14.9988C51.3827 15.0248 51.3657 15.0481 51.3445 15.067C51.3233 15.0859 51.2984 15.1001 51.2715 15.1086C51.2445 15.1172 51.2161 15.1198 51.1881 15.1164C51.1602 15.113 51.1333 15.1036 51.1094 15.0888L48.7698 13.6865C48.4881 13.5182 48.2432 13.5616 48.0349 13.8165L28.3229 38.0578C28.2869 38.1017 28.2642 38.155 28.2573 38.2114C28.2504 38.2678 28.2597 38.325 28.284 38.3763C28.3084 38.4277 28.3468 38.471 28.3949 38.5014C28.4429 38.5317 28.4986 38.5478 28.5554 38.5477H48.8073C49.0289 38.5477 49.0589 38.6235 48.8972 38.7752L26.4382 59.9319Z" fill="#D1DAFF"/>
<path d="M48.3142 6.74011L48.3642 12.7942C48.365 12.8577 48.3476 12.9201 48.3143 12.9742C48.2809 13.0282 48.2329 13.0716 48.1757 13.0994C48.1186 13.1272 48.0548 13.1382 47.9917 13.131C47.9286 13.1239 47.8688 13.099 47.8193 13.0591C47.4427 12.7592 47.0427 12.5625 46.6195 12.4692L43.305 10.3121C43.2816 10.2973 43.2623 10.277 43.2489 10.2529C43.2355 10.2287 43.2283 10.2016 43.228 10.174C43.2278 10.1464 43.2345 10.1192 43.2475 10.0948C43.2605 10.0705 43.2794 10.0498 43.3025 10.0346L48.3142 6.74011Z" fill="#D1DAFF"/>
<path d="M26.0922 29.6487C26.2039 30.0836 26.2597 30.6702 26.2597 31.4084C26.258 36.6009 26.2464 41.7943 26.2247 46.9885C26.223 47.1385 26.2597 47.6734 26.3347 48.5933C26.3947 49.3181 26.2647 50.138 26.2647 50.7579C26.263 53.7441 26.2547 56.7295 26.2397 59.714C26.2397 59.7824 26.2539 59.8324 26.2822 59.864C26.3189 59.9057 26.3705 59.9282 26.4372 59.9315L0.643646 84.0378C0.631898 84.0488 0.616469 84.0551 0.60036 84.0554C0.584251 84.0557 0.568608 84.05 0.556463 84.0394C0.544319 84.0288 0.536539 84.0141 0.534635 83.9981C0.532732 83.9821 0.536836 83.9659 0.546158 83.9528L25.8723 48.8507C26.0172 48.6491 25.9664 48.5374 25.7198 48.5158C24.7983 48.4358 23.8134 48.3758 22.7652 48.3358C16.7595 48.1075 10.7671 47.9117 4.788 47.7484C4.76415 47.7478 4.74106 47.7399 4.72178 47.7259C4.7025 47.7118 4.68796 47.6922 4.68009 47.6697C4.67222 47.6472 4.6714 47.6228 4.67773 47.5998C4.68405 47.5768 4.69723 47.5562 4.71552 47.5409L26.0922 29.6487Z" fill="#D1DAFF"/>
</svg>
