<svg width="233" height="106" viewBox="0 0 233 106" fill="none" xmlns="http://www.w3.org/2000/svg">
<path d="M161.446 73.7756C166.342 78.358 172.313 78.6787 178.697 78.7102C185.243 78.7423 191.79 78.7331 198.337 78.6824C203.911 78.6398 209.354 78.1782 214.631 76.267C224.041 72.8561 229.341 65.1243 230.937 55.4608C231.305 53.2351 231.503 50.651 231.532 47.7086C231.608 39.9724 231.618 34.7585 231.56 32.0669C231.298 20.0047 226.951 9.08998 215.073 4.48533C210.262 2.62049 204.634 1.95685 199.505 1.93646C194.82 1.91916 186.15 1.92102 173.495 1.94202C171.699 1.94573 170.47 2.03039 169.808 2.19598C166.175 3.10431 164.36 6.15924 164.342 9.76844C164.331 12.0102 164.327 13.6297 164.331 14.627C164.331 14.6913 164.363 14.7234 164.429 14.7234C175.224 14.7222 186.019 14.7234 196.813 14.7271C203.029 14.729 205.949 17.302 205.95 23.714C205.953 34.9253 205.943 46.1366 205.921 57.3479C205.911 62.6051 203.318 65.8343 197.777 65.875C194.714 65.8985 188.915 65.9004 180.382 65.8806C177.32 65.8732 173.759 65.4172 173.091 61.8376C172.55 58.9421 174.697 56.4266 176.291 54.3022C182.977 45.3933 189.662 36.4892 196.346 27.5901C196.351 27.5829 196.355 27.5743 196.355 27.5654C196.356 27.5565 196.355 27.5476 196.351 27.5397C196.347 27.5318 196.341 27.5253 196.334 27.5207C196.326 27.5162 196.318 27.5139 196.309 27.5141H164.423C164.396 27.5141 164.369 27.5206 164.344 27.5331C164.319 27.5457 164.297 27.5639 164.281 27.5864C159.801 33.543 155.324 39.5015 150.85 45.4619C149.811 46.846 148.99 48.1701 148.389 49.4344C146.726 52.9212 147.74 56.4303 149.911 59.4074C152.303 62.686 154.739 65.9331 157.218 69.1487C158.455 70.7528 159.864 72.2951 161.446 73.7756Z" stroke="#FF8780" stroke-width="2"/>
<path d="M125.977 27.5141C125.968 27.5142 125.958 27.5167 125.949 27.5212C125.941 27.5257 125.933 27.5321 125.927 27.5401L87.6053 78.6231C87.5985 78.6324 87.5944 78.6434 87.5935 78.6549C87.5925 78.6664 87.5947 78.678 87.5999 78.6883C87.6051 78.6987 87.613 78.7074 87.6228 78.7135C87.6325 78.7197 87.6438 78.723 87.6554 78.7232H119.552C119.562 78.723 119.572 78.7206 119.58 78.7161C119.589 78.7116 119.597 78.7051 119.602 78.6972L157.911 27.6142C157.918 27.6049 157.922 27.5938 157.923 27.5823C157.924 27.5708 157.922 27.5593 157.917 27.5489C157.912 27.5386 157.904 27.5299 157.894 27.5237C157.884 27.5176 157.873 27.5143 157.861 27.5141H125.977Z" stroke="#FF8780" stroke-width="2"/>
<path d="M8.99992 27.5623C5.11452 27.5678 1.88163 29.6385 1.33293 33.6777C1.07341 35.5815 1.19205 37.6465 1.21058 40.264C1.21182 40.3221 1.24086 40.3511 1.29771 40.3511H13.9012C13.963 40.3511 13.9938 40.382 13.9938 40.4438V104.212C13.9938 104.274 14.0247 104.305 14.0865 104.305H39.5252C39.5622 104.305 39.5802 104.287 39.5789 104.251C39.5727 83.3816 39.5727 62.5179 39.5789 41.6598C39.5789 41.4905 39.5999 41.0907 39.6419 40.4605C39.6469 40.3913 39.684 40.3567 39.7532 40.3567C52.5253 40.3418 61.4448 40.3431 66.5116 40.3604C69.3219 40.3697 72.184 41.6172 72.5029 44.7852C72.7142 46.8688 71.5686 48.8004 70.3563 50.4187C63.3096 59.8195 56.2711 69.2111 49.2405 78.5934C49.2317 78.6055 49.2263 78.6198 49.225 78.6347C49.2238 78.6497 49.2267 78.6647 49.2334 78.6781C49.2401 78.6915 49.2503 78.7028 49.263 78.7107C49.2758 78.7187 49.2904 78.723 49.3054 78.7232H81.0967C81.156 78.7232 81.203 78.6997 81.2376 78.6527C85.7582 72.6479 90.2646 66.6332 94.7568 60.6086C95.7022 59.3406 96.655 57.9744 97.174 56.7473C98.8665 52.7507 97.6597 49.5715 95.2369 46.2775C93.3474 43.707 91.4411 41.1494 89.5182 38.6049C86.2445 34.2709 82.6019 29.9554 77.0964 28.517C73.4965 27.5753 69.8854 27.5159 66.1891 27.5159C47.1254 27.5135 28.0624 27.5289 8.99992 27.5623Z" stroke="#FF8780" stroke-width="2"/>
<path d="M161.446 73.7757C159.864 72.2952 158.455 70.7529 157.218 69.1488C154.739 65.9332 152.303 62.6861 149.911 59.4075C147.74 56.4304 146.726 52.9213 148.389 49.4344C148.99 48.1702 149.811 46.846 150.85 45.4619C155.324 39.5016 159.801 33.5431 164.281 27.5865C164.297 27.564 164.319 27.5458 164.344 27.5332C164.369 27.5206 164.396 27.5141 164.423 27.5142H196.309C196.318 27.514 196.326 27.5163 196.334 27.5208C196.341 27.5253 196.347 27.5319 196.351 27.5398C196.355 27.5477 196.356 27.5566 196.355 27.5655C196.355 27.5744 196.351 27.5829 196.346 27.5902C189.662 36.4893 182.977 45.3933 176.291 54.3023C174.697 56.4267 172.55 58.9422 173.091 61.8377C173.759 65.4172 177.32 65.8732 180.382 65.8807C188.915 65.9004 194.714 65.8986 197.777 65.8751C203.318 65.8343 205.911 62.6051 205.921 57.348C205.943 46.1367 205.953 34.9254 205.95 23.714C205.949 17.302 203.029 14.7291 196.813 14.7272C186.019 14.7235 175.224 14.7223 164.429 14.7235C164.363 14.7235 164.331 14.6914 164.331 14.6271C164.327 13.6298 164.331 12.0103 164.342 9.7685C164.36 6.1593 166.175 3.10437 169.808 2.19605C170.47 2.03045 171.699 1.94579 173.495 1.94209C186.15 1.92108 194.82 1.91922 199.505 1.93653C204.634 1.95692 210.262 2.62055 215.073 4.48539C226.951 9.09004 231.298 20.0048 231.56 32.0669C231.618 34.7585 231.608 39.9724 231.532 47.7086C231.503 50.6511 231.305 53.2352 230.937 55.4609C229.341 65.1243 224.041 72.8562 214.631 76.2671C209.354 78.1782 203.911 78.6398 198.337 78.6825C191.79 78.7331 185.243 78.7424 178.697 78.7103C172.313 78.6787 166.342 78.3581 161.446 73.7757Z" fill="#FF0F00"/>
<path d="M125.977 27.5142H157.861C157.872 27.5143 157.884 27.5177 157.894 27.5238C157.903 27.53 157.911 27.5387 157.916 27.549C157.922 27.5593 157.924 27.5709 157.923 27.5824C157.922 27.5939 157.918 27.6049 157.911 27.6143L119.602 78.6973C119.596 78.7052 119.589 78.7116 119.58 78.7162C119.571 78.7207 119.562 78.7231 119.552 78.7232H87.6549C87.6433 78.7231 87.6321 78.7197 87.6223 78.7136C87.6125 78.7074 87.6046 78.6987 87.5994 78.6884C87.5943 78.6781 87.592 78.6665 87.593 78.655C87.5939 78.6435 87.598 78.6325 87.6048 78.6231L125.927 27.5401C125.933 27.5322 125.94 27.5257 125.949 27.5212C125.957 27.5167 125.967 27.5143 125.977 27.5142Z" fill="#FF0F00"/>
<path d="M1.33293 33.6777C1.88163 29.6384 5.11452 27.5678 8.99992 27.5622C28.0624 27.5289 47.1254 27.5134 66.1891 27.5159C69.8854 27.5159 73.4965 27.5752 77.0964 28.5169C82.6019 29.9554 86.2445 34.2708 89.5182 38.6048C91.4411 41.1494 93.3474 43.7069 95.2369 46.2774C97.6597 49.5715 98.8665 52.7506 97.174 56.7472C96.655 57.9744 95.7022 59.3406 94.7568 60.6085C90.2646 66.6331 85.7582 72.6478 81.2376 78.6526C81.203 78.6996 81.156 78.7231 81.0967 78.7231H49.3054C49.2904 78.7229 49.2758 78.7186 49.263 78.7107C49.2503 78.7027 49.2401 78.6914 49.2334 78.678C49.2267 78.6646 49.2238 78.6496 49.225 78.6347C49.2263 78.6197 49.2317 78.6054 49.2405 78.5933C56.2711 69.211 63.3096 59.8195 70.3563 50.4186C71.5686 48.8003 72.7142 46.8687 72.5029 44.7852C72.184 41.6171 69.3219 40.3696 66.5116 40.3603C61.4448 40.343 52.5253 40.3418 39.7532 40.3566C39.684 40.3566 39.6469 40.3912 39.6419 40.4604C39.5999 41.0907 39.5789 41.4905 39.5789 41.6598C39.5727 62.5179 39.5727 83.3815 39.5789 104.251C39.5802 104.287 39.5622 104.304 39.5252 104.304H14.0865C14.0247 104.304 13.9938 104.274 13.9938 104.212V40.4437C13.9938 40.3819 13.963 40.3511 13.9012 40.3511H1.29771C1.24086 40.3511 1.21182 40.322 1.21058 40.2639C1.19205 37.6465 1.07341 35.5814 1.33293 33.6777Z" fill="#FF0F00"/>
</svg>
